<svg xmlns="http://www.w3.org/2000/svg" width="1440" height="2100" viewBox="0 0 1440 2100" role="img" aria-labelledby="title desc">
<title id="title">MotherhoodTruth Concept A Editorial Magazine</title><desc id="desc">Editorial magazine homepage mockup.</desc>
<style>.bg{fill:#fff}.ink{fill:#172326}.muted{fill:#5D6668}.teal{fill:#2CBCC3}.sand{fill:#F7F1EC}.blush{fill:#F8E7E2}.mist{fill:#F5F7F7}.line{stroke:#DDE6E7;stroke-width:2}.card{fill:#fff;stroke:#DDE6E7;stroke-width:2}.h1{font:700 58px Georgia,serif}.h2{font:700 38px Georgia,serif}.h3{font:700 25px Georgia,serif}.body{font:400 19px Arial,sans-serif}.small{font:700 13px Arial,sans-serif;letter-spacing:.12em;text-transform:uppercase}.nav{font:700 16px Arial,sans-serif}.btn{fill:#2CBCC3}.btnText{font:700 16px Arial,sans-serif;fill:white}.label{font:700 13px Arial,sans-serif;fill:#2CBCC3;letter-spacing:.1em;text-transform:uppercase}</style>
<rect class="bg" width="1440" height="2100"/><rect class="bg" width="1440" height="150"/><text class="h2 ink" x="80" y="90">The Truth About Motherhood</text><text class="small muted" x="80" y="122">Honest motherhood. Midlife truth. No filters.</text><rect class="btn" x="1170" y="62" width="170" height="46" rx="23"/><text class="btnText" x="1214" y="91">Subscribe</text><line class="line" x1="0" y1="150" x2="1440" y2="150"/>
<text class="nav ink" x="80" y="196">Perimenopause</text><text class="nav ink" x="230" y="196">Midlife Motherhood</text><text class="nav ink" x="430" y="196">Motherhood</text><text class="nav ink" x="555" y="196">Health</text><text class="nav ink" x="640" y="196">Family</text><text class="nav ink" x="725" y="196">Travel</text><text class="nav ink" x="810" y="196">Opinion</text><line class="line" x1="0" y1="225" x2="1440" y2="225"/>
<text class="small teal" x="80" y="290">Top Story</text><rect class="sand" x="80" y="320" width="760" height="480" rx="28"/><text class="small muted" x="390" y="570">Large feature image</text><rect class="mist" x="890" y="320" width="470" height="220" rx="24"/><text class="label" x="925" y="375">Perimenopause</text><text class="h3 ink" x="925" y="420">Featured side story headline</text><text class="body muted" x="925" y="465">Short dek text for a second lead story.</text><rect class="mist" x="890" y="580" width="470" height="220" rx="24"/><text class="label" x="925" y="635">Motherhood</text><text class="h3 ink" x="925" y="680">Featured side story headline</text><text class="body muted" x="925" y="725">Short dek text for a third lead story.</text>
<text class="label" x="80" y="875">Midlife Motherhood</text><text class="h1 ink" x="80" y="945">What changes when motherhood meets midlife?</text><text class="body muted" x="80" y="995">A 20-year archive of honest parenting stories, now evolving into real conversations about perimenopause, health, identity, and family life.</text>
<rect class="blush" x="80" y="1080" width="1280" height="170" rx="28"/><text class="h2 ink" x="130" y="1145">Start with the pillars</text><text class="body muted" x="130" y="1192">Perimenopause · Midlife Motherhood · Motherhood · Health & Wellness · Family Life · Travel · Opinion</text>
<text class="h2 ink" x="80" y="1350">Latest Stories</text><g transform="translate(80 1390)"><rect class="sand" width="285" height="190" rx="20"/><text class="label" x="0" y="235">Health</text><text class="h3 ink" x="0" y="275">Article headline</text></g><g transform="translate(405 1390)"><rect class="sand" width="285" height="190" rx="20"/><text class="label" x="0" y="235">Family</text><text class="h3 ink" x="0" y="275">Article headline</text></g><g transform="translate(730 1390)"><rect class="sand" width="285" height="190" rx="20"/><text class="label" x="0" y="235">Travel</text><text class="h3 ink" x="0" y="275">Article headline</text></g><g transform="translate(1055 1390)"><rect class="sand" width="285" height="190" rx="20"/><text class="label" x="0" y="235">Opinion</text><text class="h3 ink" x="0" y="275">Article headline</text></g>
<text class="h2 ink" x="80" y="1810">From 20 Years of Truth</text><rect class="card" x="80" y="1850" width="1280" height="130" rx="22"/><text class="body muted" x="130" y="1925">Evergreen archive links and older high-performing posts get refreshed visibility here.</text>
</svg>