<?xml version="1.0" encoding="UTF-8" standalone="no"?>
<svg
   xmlns:dc="http://purl.org/dc/elements/1.1/"
   xmlns:cc="http://creativecommons.org/ns#"
   xmlns:rdf="http://www.w3.org/1999/02/22-rdf-syntax-ns#"
   xmlns:svg="http://www.w3.org/2000/svg"
   xmlns="http://www.w3.org/2000/svg"
   width="507"
   height="188"
   viewBox="4 4 181.07117 94"
   version="1.1"
   id="svg8">
  <defs
     id="defs2" />
  <metadata
     id="metadata5">
    <rdf:RDF>
      <cc:Work
         rdf:about="">
        <dc:format>image/svg+xml</dc:format>
        <dc:type
           rdf:resource="http://purl.org/dc/dcmitype/StillImage" />
        <dc:title></dc:title>
      </cc:Work>
    </rdf:RDF>
  </metadata>
  <g
     id="layer1"
     transform="translate(-31.597222,-83.763889)">
    <g
       id="g21"
       transform="matrix(0.73636463,0,0,0.73636463,571.09031,-215.13305)">
      <path
         style="fill:#00ecff;stroke:#00ecff;stroke-width:0.16158603;stroke-opacity:1;fill-opacity:1"
         d="m -470.34495,446.32293 c -0.60079,-0.17296 -0.99203,-0.40393 -1.7334,-1.02333 l -0.65894,-0.55052 1.00251,-1.11268 c 1.52737,-1.69522 2.25336,-2.6148 3.09966,-3.92619 0.77302,-1.19784 1.5215,-3.00563 1.52792,-3.69032 0.004,-0.44464 -0.27205,-0.45869 -2.3396,-0.11899 -0.83679,0.13749 -2.51402,0.23921 -3.95017,0.23956 -2.44526,7.2e-4 -2.50859,-0.008 -3.12177,-0.43312 -0.66596,-0.46151 -1.16543,-1.23243 -1.02893,-1.58814 0.0454,-0.11839 0.24496,-0.23908 0.4434,-0.26819 0.19844,-0.0291 0.39107,-0.14486 0.42808,-0.25721 0.0953,-0.28921 -0.84148,-0.64054 -2.06875,-0.77592 l -1.04336,-0.11509 -1.40904,-1.39139 c -1.28613,-1.27001 -1.38929,-1.41743 -1.18257,-1.68991 0.21958,-0.28944 0.25394,-0.28825 1.1283,0.0389 1.21933,0.45621 3.26013,0.66124 4.93741,0.49604 0.75542,-0.0744 1.57344,-0.13985 1.81784,-0.14545 0.43832,-0.01 0.44436,-0.0245 0.44436,-1.06447 0,-1.25538 -0.0245,-1.23899 2.2497,-1.50543 0.83741,-0.0981 1.60091,-0.25824 1.69666,-0.35585 0.25986,-0.26493 -0.35482,-0.69783 -1.72541,-1.21513 -1.55196,-0.58577 -2.90403,-1.26795 -4.03918,-2.03796 -0.8975,-0.6088 -1.55301,-1.3402 -1.36745,-1.52576 0.0494,-0.0494 0.60459,0.0161 1.23378,0.14557 l 1.14397,0.23537 v -0.36839 c 0,-0.20262 -0.30903,-0.74778 -0.68674,-1.21147 -1.70223,-2.08973 -2.27094,-2.8968 -2.78529,-3.95273 -0.67756,-1.39099 -1.05237,-2.78429 -1.05237,-3.91202 0,-1.55817 0.26784,-1.37516 5.49392,3.75384 3.22149,3.16164 5.36042,4.92443 8.30202,6.84205 0.75826,0.49431 1.4546,0.82988 1.72207,0.82988 0.61647,0 1.58504,-1.10807 3.45916,-3.95736 1.4236,-2.16436 1.55397,-2.31013 2.79392,-3.12419 1.73216,-1.13719 2.6821,-1.48251 4.07825,-1.48251 0.75152,0 1.53965,-0.133 2.38166,-0.4019 0.69214,-0.22105 1.34934,-0.40283 1.46043,-0.40397 0.43339,-0.004 0.15188,0.50379 -1.07174,1.93481 l -1.27371,1.48962 -0.0736,1.39729 c -0.0504,0.95603 -0.21401,1.79704 -0.51818,2.6632 l -0.44456,1.26592 0.20631,2.56875 0.20631,2.56876 -0.62113,2.2248 -0.62112,2.2248 -2.44743,2.44847 c -2.20198,2.20292 -2.53459,2.47435 -3.31654,2.70657 -0.47801,0.14195 -1.2393,0.25809 -1.69176,0.25809 -0.7841,0 -0.83762,0.0281 -1.14217,0.60008 -0.40631,0.76308 -3.05102,4.51449 -3.57805,5.07531 -0.43685,0.46487 -2.59698,1.51696 -3.3665,1.63964 -0.26661,0.0425 -0.67078,0.0238 -0.89815,-0.0417 z"
         id="path76" />
      <path
         style="fill:#f2f2f2;stroke:#f9f9f9;stroke-width:0.16158603;stroke-opacity:1"
         d="m -550.53515,537.14816 c -2.60168,-1.56033 -3.94928,-2.63534 -5.35753,-4.27386 l -1.25608,-1.46145 -0.74995,-2.62978 -0.74996,-2.62979 -6.49595,-6.45362 -6.49594,-6.45362 -2.52782,-1.65625 -2.52782,-1.65626 h -2.0656 c -1.85743,0 -2.06614,0.0285 -2.07104,0.28278 -0.0221,1.14931 -0.34155,3.65983 -0.53836,4.23107 -0.13165,0.3821 -0.48125,1.04964 -0.77689,1.48343 l -0.53754,0.78871 -1.24836,3.2e-4 -1.24836,3.2e-4 -1.62385,-1.05038 c -1.38694,-0.89715 -1.63912,-1.12699 -1.72852,-1.57547 -0.0576,-0.28879 -0.47385,-1.61578 -0.92506,-2.94886 l -0.8204,-2.42379 -0.88563,-0.43138 c -1.26284,-0.61512 -3.27598,-1.12149 -8.89032,-2.23623 -5.52125,-1.09625 -7.77536,-1.35994 -13.73642,-1.60689 -3.61146,-0.14961 -4.77236,-0.271 -9.37199,-0.97997 -2.88747,-0.44506 -6.26793,-0.9878 -7.51214,-1.20608 -4.14324,-0.72689 -5.94665,-0.90739 -10.02123,-1.00301 l -4.04255,-0.0949 -1.53217,0.43815 c -1.63784,0.46836 -3.73654,1.40832 -5.57182,2.49549 l -1.1311,0.67003 -0.088,-2.646 c -0.07,-2.10259 -0.144,-2.73141 -0.36052,-3.06186 -0.57538,-0.87814 -3.89312,-2.06518 -6.90454,-2.47035 -0.72237,-0.0972 -0.73502,-0.0905 -1.61586,0.85355 -0.48828,0.52333 -1.46949,1.63536 -2.18047,2.47119 -0.71098,0.83582 -2.45611,2.5709 -3.87807,3.85573 -2.55763,2.31098 -2.61179,2.34879 -5.04782,3.52308 l -2.46246,1.18703 h -1.53074 c -2.21868,0 -3.94059,-0.71201 -3.77694,-1.56176 0.031,-0.16121 0.55306,-0.62985 1.16002,-1.04141 0.60697,-0.41156 2.06039,-1.54189 3.22984,-2.51184 1.16944,-0.96994 3.16242,-2.58986 4.42885,-3.59982 1.48382,-1.18331 2.3026,-1.9435 2.3026,-2.13782 0,-0.62088 -1.02921,-1.02744 -4.84758,-1.91492 -2.07978,-0.48338 -2.53798,-0.52492 -9.83436,-0.89156 l -7.65295,-0.38456 -3.49648,0.46615 c -4.38367,0.58443 -6.19734,0.73303 -13.838,1.13381 -3.37715,0.17714 -6.63108,0.36642 -7.23097,0.42062 l -1.09071,0.0985 c -33.17317,5.45937 -64.99349,7.10391 -55.08199,-4.21139 l 55.08199,-2.2616 0.84833,-0.0903 c 1.73263,-0.18445 11.7041,-0.90535 12.50313,-0.90393 0.49752,7.2e-4 0.90042,-0.0851 1.00846,-0.21532 0.133,-0.16025 0.9916,-0.2446 3.2919,-0.32339 2.83311,-0.097 4.55964,-0.21732 10.62574,-0.74017 1.1109,-0.0957 2.63863,-0.21549 3.39495,-0.26608 l 1.37512,-0.092 2.15227,-2.11916 2.15226,-2.11916 0.14789,-1.42941 c 0.34703,-3.3543 0.84888,-4.45517 3.13827,-6.88415 l 1.26695,-1.34419 -0.18449,-1.1867 c -0.10147,-0.65268 -0.47521,-1.90774 -0.83052,-2.78903 -0.70426,-1.74678 -1.03991,-3.5338 -0.63974,-3.4061 0.12473,0.0398 0.52992,0.61312 0.90043,1.27403 0.87972,1.56927 1.46454,2.41355 1.67181,2.41355 0.28748,0 0.48185,-0.78352 0.49365,-1.98995 0.0169,-1.72152 0.16995,-1.96381 0.60374,-0.95543 0.46984,1.09217 0.81318,2.59903 0.92883,4.07648 0.10384,1.32659 -0.0147,1.81891 -1.38142,5.7363 -0.44501,1.27555 -0.70383,2.32607 -0.7564,3.07014 -0.0715,1.0122 -0.0318,1.22452 0.37818,2.01982 0.34917,0.6774 0.58111,0.92849 0.97541,1.05594 0.28453,0.092 0.55642,0.20631 0.6042,0.25409 0.0478,0.0478 -0.25094,0.48153 -0.66382,0.96389 -0.90463,1.05685 -1.50889,2.35622 -1.62676,3.49808 -0.0816,0.79037 -0.0546,0.87397 0.42758,1.32438 0.89183,0.83309 1.9583,1.10768 5.7074,1.46947 1.89011,0.1824 4.657,0.49617 6.14864,0.69726 l 2.71208,0.36562 1.25703,-1.46145 c 3.84539,-4.47076 4.96568,-6.26997 10.37166,-16.65717 1.77765,-3.41561 3.45851,-6.5929 3.73524,-7.06065 0.27673,-0.46774 1.2279,-2.19564 2.11371,-3.83978 0.8858,-1.64414 2.06304,-3.68012 2.61608,-4.52441 1.39788,-2.13406 2.15846,-3.98416 3.73222,-9.07848 1.75567,-5.68324 3.62724,-10.01708 4.89758,-11.34093 1.1271,-1.1746 3.34104,-2.984 4.79759,-3.92096 l 1.28965,-0.8296 2.4064,-0.28389 c 1.67573,-0.19768 2.89361,-0.25195 4.01098,-0.17873 l 1.60458,0.10516 1.23308,-0.80951 c 0.6782,-0.44523 1.32177,-0.80951 1.43016,-0.80951 0.10838,0 0.4161,-0.18431 0.6838,-0.40957 0.54635,-0.45972 2.81549,-1.55539 3.85536,-1.8616 0.54734,-0.16117 0.73036,-0.16024 0.92911,0.005 0.13613,0.11298 0.24751,0.2763 0.24751,0.36293 0,0.16959 -4.79288,7.2734 -6.9354,10.27936 -1.28597,1.80421 -1.30549,1.84615 -1.30549,2.8056 0,0.92861 0.0645,1.08569 1.38362,3.36966 0.76098,1.31761 1.63282,3.00691 1.93741,3.75401 0.30459,0.74709 1.21779,3.8237 2.02934,6.8369 l 1.47554,5.47855 -0.0936,4.84758 c -0.11657,6.0357 -0.37107,8.37798 -1.05816,9.73911 -0.6822,1.35142 -1.48451,2.59054 -3.07058,4.74234 -1.29542,1.75749 -1.42649,1.88158 -2.96602,2.80826 -0.88588,0.53323 -2.02112,1.30228 -2.52274,1.70898 -0.95217,0.772 -0.96243,0.80213 -0.65607,1.9267 0.17301,0.63507 -0.005,0.49644 4.72008,3.66936 l 3.19862,2.14774 h 6.52531 6.52531 l 2.0978,-0.48476 c 1.15378,-0.26661 2.15002,-0.48475 2.21386,-0.48475 0.24285,0 -0.12616,-1.70598 -0.76205,-3.52293 -0.36383,-1.03961 -1.27757,-3.41719 -2.03052,-5.28351 -1.79794,-4.45652 -2.55781,-6.50918 -4.06756,-10.98785 l -1.25281,-3.71648 0.20783,-2.90852 c 0.1143,-1.59968 0.28942,-3.41752 0.38914,-4.03965 0.27728,-1.72976 1.14787,-4.95437 2.42121,-8.96805 2.04987,-6.46135 2.1882,-7.18078 2.67201,-13.8964 l 0.26192,-3.63569 0.96185,-1.63679 c 0.91773,-1.56173 1.0042,-1.6556 1.88516,-2.04674 1.03131,-0.45788 3.10363,-1.10041 4.77282,-1.47983 1.04682,-0.23794 1.16931,-0.23347 2.42379,0.0885 1.2413,0.3186 1.36524,0.32369 2.04839,0.0842 0.89721,-0.31448 4.65318,-1.23045 5.04551,-1.23045 0.15775,0 0.28682,0.11621 0.28682,0.25825 0,0.22924 -1.16674,3.4208 -2.06529,5.64951 l -0.32972,0.81781 0.42315,1.28281 c 0.56399,1.70976 1.74433,3.99402 3.58522,6.93833 2.65079,4.23964 5.67481,10.493 6.70066,13.85624 0.52333,1.71572 1.11811,4.7193 1.44786,7.31153 0.2381,1.87179 0.23348,2.03708 -0.13338,4.76678 -0.36636,2.72605 -0.43011,2.96669 -1.77208,6.6903 -1.60227,4.44591 -1.59814,4.37061 -0.33204,6.05491 1.41226,1.87871 3.71149,3.77255 5.70573,4.6997 0.85125,0.39576 0.86086,0.3964 2.09382,0.14055 0.68125,-0.14138 2.40206,-0.69192 3.82402,-1.22343 1.42196,-0.53152 2.76716,-1.01099 2.98934,-1.06551 0.59168,-0.14518 2.24989,-1.50827 2.43858,-2.00457 0.49741,-1.30827 2.24742,-9.27513 2.24742,-10.23127 0,-0.0541 0.39644,-0.37146 0.881,-0.70518 0.48456,-0.33372 1.43601,-1.18769 2.11436,-1.89771 1.16667,-1.22114 1.24929,-1.27651 1.52819,-1.02411 0.28381,0.25684 0.27358,0.31326 -0.27317,1.50728 -1.02057,2.22881 -1.96617,4.63365 -2.36718,6.02026 l -0.39345,1.36046 0.24364,2.26221 0.24364,2.2622 0.69636,0.87787 0.69637,0.87786 2.072,0.0265 c 1.63394,0.0209 2.58119,0.13419 4.48059,0.53601 1.32473,0.28026 2.46997,0.50955 2.54498,0.50955 0.075,0 0.13631,-0.30903 0.13624,-0.68674 -1.6e-4,-0.8922 -0.77052,-2.52546 -1.43415,-3.04059 -0.27854,-0.21621 -0.94843,-0.7551 -1.48864,-1.19752 l -0.9822,-0.80441 0.0639,-2.50811 c 0.0605,-2.37501 0.11231,-2.71177 0.97568,-6.34632 1.8109,-7.62343 3.25787,-12.07438 5.18171,-15.93914 l 1.1579,-2.32608 1.45427,-1.17223 c 1.45182,-1.17025 1.45678,-1.17263 2.93259,-1.40484 1.22191,-0.19226 1.54422,-0.19608 1.85824,-0.022 1.6343,0.90585 6.6404,1.49288 8.13605,0.95405 0.86155,-0.31037 1.66343,-0.29431 2.30152,0.0461 l 0.52406,0.27959 -2.04404,1.85466 c -1.94543,1.76517 -2.07704,1.92481 -2.72791,3.30892 -0.7716,1.64086 -1.20462,2.97307 -1.20441,3.70541 8e-5,0.27271 0.43397,1.75575 0.96422,3.29565 1.23149,3.57654 1.71874,5.77205 2.03868,9.18613 l 0.25673,2.73946 -0.41148,1.50164 -0.41148,1.50163 0.47824,0.9474 c 0.26303,0.52107 0.47825,1.05108 0.47825,1.1778 0,0.23784 -1.01836,0.4704 -2.98934,0.68267 -0.95981,0.10338 -0.98359,0.11854 -2.37389,1.51374 -1.19392,1.19811 -1.80329,2.1103 -1.56398,2.34114 0.21833,0.21061 3.85497,0.79854 4.98818,0.80643 l 1.37348,0.01 4.28203,-2.24114 c 2.35511,-1.23263 4.87838,-2.59601 5.60726,-3.02974 0.72888,-0.43372 1.4653,-0.78859 1.63648,-0.78859 0.17117,0 0.38824,-0.0928 0.48235,-0.20619 0.23765,-0.28635 -0.0611,-0.84766 -1.43815,-2.70236 -0.62687,-0.84429 -1.32006,-1.88514 -1.54043,-2.31301 -0.22037,-0.42787 -0.72523,-1.21883 -1.12192,-1.75768 -0.39668,-0.53885 -0.76318,-1.14679 -0.81441,-1.35097 -0.1357,-0.54068 0.29159,-3.23055 1.54734,-9.74081 0.6114,-3.16961 1.19406,-6.38099 1.29483,-7.13641 0.22607,-1.69499 0.4083,-2.41506 1.53613,-6.06989 1.20563,-3.90694 1.45758,-4.58533 2.36675,-6.37223 0.85069,-1.67199 1.70147,-2.76653 2.66867,-3.43328 0.5181,-0.35715 0.96299,-0.47009 2.68063,-0.68051 l 2.05945,-0.2523 1.92434,0.96465 1.92437,0.96464 2.63572,-0.88222 c 1.44964,-0.48522 2.64859,-0.88222 2.66433,-0.88222 0.0157,0 0.0739,0.118 0.12923,0.26222 0.0613,0.1596 -0.1274,0.60577 -0.48202,1.14004 -1.1489,1.73088 -2.49256,5.05126 -2.49256,6.15946 0,0.33674 0.47899,1.99068 1.0644,3.67544 1.84114,5.29851 2.63244,7.77468 2.84763,8.91093 0.3154,1.66536 0.26514,8.51899 -0.0732,9.98548 l -0.26046,1.12888 0.58703,0.76975 c 0.32286,0.42337 0.62228,0.76976 0.66538,0.76976 0.0431,0 0.67397,-0.19396 1.40193,-0.43103 l 1.32357,-0.43104 0.81469,-1.22522 c 0.96261,-1.44773 1.35756,-2.2274 2.35288,-4.64496 0.40848,-0.99213 1.42028,-3.13719 2.24846,-4.76679 0.82816,-1.6296 1.81884,-3.83547 2.20148,-4.90194 0.79188,-2.20704 1.87404,-4.40235 2.60862,-5.29194 0.52582,-0.63678 1.0439,-0.82197 0.90411,-0.32317 -0.40001,1.42731 -0.75928,3.48951 -0.63039,3.6184 0.36739,0.36739 2.51544,0.94499 4.08655,1.09886 2.6537,0.25988 2.57386,0.21482 3.18607,1.79801 l 0.5267,1.36205 1.41305,0.88782 c 1.86583,1.17232 4.43035,2.58628 4.69076,2.58628 0.11419,0 0.95042,-0.51862 1.85826,-1.15248 4.25538,-2.97111 8.42181,-6.52251 12.20011,-10.39917 3.53578,-3.62782 5.09951,-5.43589 6.49065,-7.50479 l 0.96709,-1.43828 0.81301,0.21447 c 0.44716,0.11796 1.3154,0.29921 1.92939,0.40277 1.09388,0.18451 1.14688,0.1769 2.62551,-0.37654 0.83001,-0.31067 1.71689,-0.61684 1.97089,-0.68039 0.41705,-0.10436 0.44572,-0.0861 0.29625,0.18911 -0.3306,0.60864 -2.57507,2.95332 -4.23213,4.42108 -2.07872,1.84127 -3.09165,2.52655 -4.03966,2.73296 -0.67568,0.14711 -1.13865,0.57426 -6.54421,6.03789 -5.44489,5.50335 -7.66799,7.54136 -10.82627,9.92483 -1.03266,0.77933 -1.60146,1.07396 -2.82776,1.46477 -0.84428,0.26906 -2.83914,0.97557 -4.43303,1.57002 -3.50094,1.3057 -7.84285,2.58558 -9.88771,2.91463 -0.8262,0.13295 -1.92311,0.43084 -2.43755,0.66199 -3.66779,1.64795 -9.00773,3.44303 -11.99977,4.03385 l -2.02407,0.39968 -1.2119,1.3165 c -2.12074,2.30378 -3.07403,3.5659 -3.02962,4.01107 0.13263,1.32989 4.76877,-0.15575 10.28244,-3.29497 l 2.48604,-1.41544 3.00789,-0.2339 c 3.73693,-0.2906 7.13021,-0.74605 10.27365,-1.37895 3.80498,-0.76609 4.99164,-1.21047 7.76174,-2.90656 1.33309,-0.81623 3.18728,-1.94923 4.12044,-2.51779 2.00891,-1.22398 2.44053,-1.56197 7.59455,-5.94695 6.20194,-5.27656 7.99553,-6.66206 13.29191,-10.26768 4.42753,-3.01414 4.5622,-3.09609 4.98762,-3.03522 0.33265,0.0476 0.18199,0.25617 -1.31701,1.82332 -2.42585,2.53611 -2.62516,2.7172 -4.682,4.25397 -5.62841,4.20531 -10.67148,8.49911 -16.62926,14.15856 -4.05056,3.84773 -6.29642,5.48937 -10.67877,7.80575 l -2.50458,1.32386 -3.50659,0.4174 c -4.53197,0.53946 -6.70141,0.89606 -10.95536,1.80076 -4.65712,0.99045 -5.8171,1.39058 -5.8171,2.00658 0,0.17723 0.18179,0.76961 0.40397,1.3164 0.40088,0.98657 0.50832,1.81939 0.2803,2.1727 -0.0885,0.1371 -0.87993,0.1281 -3.10805,-0.0354 -5.72608,-0.42007 -6.21783,-0.33394 -6.97561,1.22181 -0.23726,0.48709 -0.62742,1.61416 -0.86704,2.50458 -0.43335,1.61042 -0.43503,1.6382 -0.31981,5.27174 l 0.11584,3.65278 -0.70309,1.23553 c -0.69296,1.21777 -0.73021,1.2518 -2.58908,2.3663 -1.87986,1.12707 -1.88991,1.13076 -3.07689,1.13076 -1.18825,0 -1.19237,-0.001 -1.86069,-0.68674 l -0.66981,-0.68674 0.20937,-6.22107 0.20938,-6.22106 -0.63758,-1.7978 -0.63758,-1.79781 -0.70997,-0.0973 c -0.48059,-0.0659 -1.02506,7.2e-4 -1.68513,0.20618 -1.12563,0.35034 -2.19578,1.16504 -5.1008,3.88323 -1.06082,0.99259 -2.1428,1.91847 -2.40441,2.05752 -0.73432,0.39031 -5.75588,0.38011 -8.03693,-0.0163 l -1.72596,-0.29997 -0.70967,0.4159 c -0.5482,0.32126 -0.75361,0.56253 -0.90277,1.06034 -0.35529,1.18587 -0.50033,2.98572 -0.50536,6.27096 l -0.005,3.25989 -1.1715,1.22355 -1.1715,1.22355 -1.72492,0.21273 -1.72491,0.21272 -0.60427,-0.50731 -0.60426,-0.50731 0.41122,-5.47569 0.4112,-5.4757 -0.42503,-0.77105 -0.42503,-0.77105 -6.82266,-0.002 -6.82268,-0.002 -2.87248,0.48937 c -1.57988,0.26915 -4.9812,0.91647 -7.55849,1.43849 -4.51401,0.91428 -4.73641,0.97704 -6.05948,1.70999 -2.15456,1.19357 -3.38062,2.05923 -5.08292,3.58881 l -1.57832,1.41819 0.0743,2.10062 c 0.0781,2.20634 0.29061,3.0344 0.96231,3.74939 0.66081,0.7034 2.36079,1.06183 8.69473,1.8332 2.26624,0.276 4.66579,0.61282 5.33233,0.74849 0.86603,0.17627 2.77983,0.27647 6.70583,0.3511 l 5.49392,0.10443 1.02025,0.55318 c 1.10367,0.5984 1.71322,1.37613 1.29759,1.65559 -0.68516,0.46069 -1.18117,0.61939 -1.94624,0.6227 -0.47101,0.002 -1.80164,0.1458 -2.95698,0.31946 -1.15534,0.17366 -2.64597,0.32137 -3.31251,0.32825 -0.73226,0.008 -1.49968,0.12312 -1.93904,0.29199 -0.71073,0.27319 -0.77815,0.26951 -2.98933,-0.16339 -3.76678,-0.73745 -6.57409,-0.79622 -7.36693,-0.15422 -0.34503,0.27939 -0.33898,0.28827 1.63613,2.4043 1.09035,1.16813 3.08625,3.16721 4.43535,4.4424 2.74598,2.59554 2.90628,2.68557 6.14303,3.45011 3.79163,0.8956 4.12044,1.05962 4.12044,2.05535 0,0.4955 -0.0727,0.57061 -0.96625,0.99767 -0.53144,0.25401 -1.15849,0.66248 -1.39344,0.90771 -0.39731,0.41471 -0.41907,0.51161 -0.31107,1.38573 0.2156,1.74506 0.91071,4.49034 1.31035,5.17512 0.21839,0.37422 0.9855,1.3883 1.70467,2.25353 0.71917,0.86523 1.48127,1.84827 1.69356,2.18455 0.3841,0.60845 0.50047,1.1026 0.25964,1.1026 -0.0695,0 -0.92385,-0.47832 -1.89863,-1.06293 z m -29.0257,-31.62135 c 0.34666,-1.37672 -0.58087,-5.52276 -1.76597,-7.89388 -0.67509,-1.35071 -0.97834,-1.37284 -2.15617,-0.15736 l -0.63576,0.65609 0.18175,1.33613 c 0.21576,1.58605 0.85877,3.86636 1.43184,5.07774 0.49262,1.04132 1.31486,1.67152 2.18085,1.67152 0.55933,0 0.59859,-0.0355 0.76346,-0.69024 z m -12.47187,-2.30574 c 0.0828,-0.21586 -0.97294,-5.84284 -1.12476,-5.99466 -0.0824,-0.0824 -5.83729,0.39298 -8.19134,0.67664 -2.43891,0.29389 -8.43156,1.30118 -9.38722,1.57786 -0.37804,0.10946 -0.71696,0.28786 -0.75315,0.39645 -0.1176,0.35277 0.80193,0.54447 3.34718,0.69782 5.00472,0.30153 10.78107,1.36259 14.87249,2.73193 0.64636,0.21633 1.13379,0.18242 1.2368,-0.086 z m -43.41075,-6.86032 c 2.87503,-0.37036 6.39807,-1.40531 7.3363,-2.15515 0.60586,-0.4842 0.52692,-0.81517 -0.59011,-2.47407 -0.84053,-1.24828 -0.86088,-1.26483 -2.22066,-1.80526 -0.83469,-0.33174 -1.91713,-0.6142 -2.76288,-0.72095 l -1.39053,-0.17551 -1.20722,0.57331 c -2.33391,1.10837 -7.82751,4.58435 -8.59689,5.43953 -0.3977,0.44207 -0.27279,0.70703 0.57283,1.21511 l 0.69906,0.42002 3.39331,-0.07 c 1.86632,-0.0385 4.01137,-0.14967 4.76679,-0.24698 z m 17.93191,-3.57527 c 0.29397,-0.40582 0.43532,-0.75083 0.36159,-0.88259 -0.33326,-0.59549 -2.01683,-1.63491 -3.8826,-2.39706 -1.47918,-0.60424 -1.59118,-0.57724 -1.7894,0.43143 -0.14811,0.75368 -0.50255,2.72318 -0.50255,2.7925 0,0.0761 1.26803,0.5573 1.61586,0.61313 0.22218,0.0357 1.14883,0.0748 2.05921,0.0869 l 1.65524,0.022 z m -31.99345,-0.26284 c -0.005,-0.81887 -0.53645,-1.93791 -1.02686,-2.16136 -0.51572,-0.23497 -0.97737,-0.11148 -1.9218,0.51409 -0.80865,0.53562 -0.89439,0.72081 -0.5511,1.19028 0.25464,0.34825 2.23667,1.05287 2.97816,1.05876 0.50048,0.004 0.52499,-0.0243 0.5216,-0.60177 z m 70.84291,-2.18142 c -0.0506,-0.55545 -0.1199,-1.1008 -0.15404,-1.21189 -0.152,-0.49455 -1.30016,0.0427 -1.70404,0.79735 -0.25981,0.48546 0.67538,1.42446 1.41866,1.42446 h 0.53138 z m 5.29805,-1.17066 c 1.21798,-0.42893 1.25413,-0.55959 0.55106,-1.99207 -0.77939,-1.588 -1.9876,-3.66556 -2.26614,-3.89673 -0.16909,-0.14033 -0.3198,-0.0122 -0.69643,0.59224 -0.69721,1.11888 -1.9817,3.56589 -1.9817,3.77524 0,0.0986 0.23632,0.57697 0.52516,1.06311 l 0.52515,0.88388 1.29269,-0.0794 c 0.71097,-0.0437 1.63357,-0.19949 2.05021,-0.34622 z m 99.50661,-26.12117 c 0.66654,-0.0883 1.86632,-0.21552 2.66617,-0.28276 1.55035,-0.13033 3.06852,-0.6562 2.95455,-1.0234 -0.11002,-0.3545 -2.90486,-2.37552 -4.08566,-2.95444 -1.15744,-0.56748 -3.93961,-1.21957 -5.40292,-1.26635 l -0.73735,-0.0236 -0.65909,1.31419 c -0.846,1.6869 -1.53615,3.76876 -1.40969,4.25236 l 0.0974,0.37242 2.68235,-0.11398 c 1.47528,-0.0627 3.22769,-0.1862 3.89424,-0.27447 z"
         id="path886" />
      <flowRoot
         xml:space="preserve"
         id="flowRoot2438"
         style="font-style:normal;font-weight:normal;font-size:40px;line-height:1.25;font-family:sans-serif;letter-spacing:0px;word-spacing:0px;fill:#000000;fill-opacity:1;stroke:none"><flowRegion
           id="flowRegion2440"><rect
             id="rect2442"
             width="723.3963"
             height="118.40758"
             x="144.30923"
             y="373.72391" /></flowRegion><flowPara
           id="flowPara2444" /></flowRoot>    </g>
  </g>
  <g
     id="text4575"
     style="font-style:normal;font-weight:normal;font-size:20px;line-height:1.25;font-family:sans-serif;letter-spacing:0px;word-spacing:0px;fill:#000000;fill-opacity:1;stroke:none;stroke-width:0.5"
     aria-label="The TRUTH">
    <path
       id="path4663"
       style="font-style:normal;font-variant:normal;font-weight:300;font-stretch:normal;font-size:43.33333206px;font-family:Chivo;-inkscape-font-specification:'Chivo, Light';font-variant-ligatures:normal;font-variant-caps:normal;font-variant-numeric:normal;font-feature-settings:normal;text-align:start;writing-mode:lr-tb;text-anchor:start;stroke-width:0.5"
       d="m -3.7549703,45.80472 h 10.053333 v -2.08 H -16.061637 v 2.08 h 10.0533334 v 27.646665 h 2.2533333 z" />
    <path
       id="path4665"
       style="font-style:normal;font-variant:normal;font-weight:300;font-stretch:normal;font-size:43.33333206px;font-family:Chivo;-inkscape-font-specification:'Chivo, Light';font-variant-ligatures:normal;font-variant-caps:normal;font-variant-numeric:normal;font-feature-settings:normal;text-align:start;writing-mode:lr-tb;text-anchor:start;stroke-width:0.5"
       d="m 26.757112,73.451385 h 2.21 V 59.194719 c 0,-5.763333 -3.64,-8.32 -8.233334,-8.32 -2.556666,0 -5.503333,1.213334 -7.019999,3.553334 V 42.251386 h -2.21 v 31.199999 h 2.21 V 59.844719 c 0,-3.986666 2.903333,-6.976666 6.803333,-6.976666 3.9,0 6.24,2.166666 6.24,6.976666 z" />
    <path
       id="path4667"
       style="font-style:normal;font-variant:normal;font-weight:300;font-stretch:normal;font-size:43.33333206px;font-family:Chivo;-inkscape-font-specification:'Chivo, Light';font-variant-ligatures:normal;font-variant-caps:normal;font-variant-numeric:normal;font-feature-settings:normal;text-align:start;writing-mode:lr-tb;text-anchor:start;stroke-width:0.5"
       d="M 53.742946,65.261386 H 51.57628 c 0,4.55 -3.033334,6.63 -6.456667,6.63 -3.986666,0 -7.063333,-2.903334 -7.063333,-8.926667 v -0.346667 h 15.686666 v -2.773333 c 0,-5.763333 -3.813333,-8.97 -8.666666,-8.97 -5.46,0 -9.23,4.03 -9.23,11.18 v 0.65 c 0,7.15 3.813333,11.18 9.273333,11.18 4.766667,0 8.623333,-3.076667 8.623333,-8.623333 z M 45.07628,52.868053 c 3.553333,0 6.5,2.253333 6.5,6.976666 v 0.78 H 38.099613 c 0.346667,-5.2 3.25,-7.756666 6.976667,-7.756666 z" />
    <path
       id="path4669"
       style="font-style:normal;font-variant:normal;font-weight:300;font-stretch:normal;font-size:43.33333206px;font-family:Chivo;-inkscape-font-specification:'Chivo, Light';font-variant-ligatures:normal;font-variant-caps:normal;font-variant-numeric:normal;font-feature-settings:normal;text-align:start;writing-mode:lr-tb;text-anchor:start;stroke-width:0.5"
       d="m 81.726795,45.80472 h 10.053333 v -2.08 H 69.420129 v 2.08 h 10.053333 v 27.646665 h 2.253333 z" />
    <path
       id="path4671"
       style="font-style:normal;font-variant:normal;font-weight:300;font-stretch:normal;font-size:43.33333206px;font-family:Chivo;-inkscape-font-specification:'Chivo, Light';font-variant-ligatures:normal;font-variant-caps:normal;font-variant-numeric:normal;font-feature-settings:normal;text-align:start;writing-mode:lr-tb;text-anchor:start;stroke-width:0.5"
       d="m 119.34555,73.408052 v -0.823333 c -1.08334,-0.52 -2.21,-0.433333 -2.21,-5.763333 0,-7.756667 -4.76667,-8.493333 -4.76667,-8.493333 v -0.216667 c 3.03333,-0.563333 5.33,-3.856667 5.33,-7.02 0,-4.463333 -4.03,-7.366666 -8.23333,-7.366666 H 97.375548 v 29.726665 h 2.34 V 59.324719 h 9.576662 c 1.38667,0 5.59,0.563334 5.59,8.623333 0,4.853334 2.03667,5.633333 3.38,5.633333 0.60667,0 1.08334,-0.173333 1.08334,-0.173333 z m -9.75,-16.163333 H 99.715548 V 45.80472 h 9.880002 c 3.20666,0 5.80666,2.47 5.80666,5.676666 0,3.206667 -2.6,5.763333 -5.80666,5.763333 z" />
    <path
       id="path4673"
       style="fill:#00ecff;fill-opacity:1"
       d="m 146.81549,43.72472 h -2.34 v 20.106666 c 0,4.68 -2.86,7.973333 -8.01666,7.973333 -5.11334,0 -7.97334,-3.163333 -7.97334,-7.973333 V 43.72472 h -2.34 v 20.193332 c 0,6.023334 4.07334,9.966667 10.31334,9.966667 6.24,0 10.35666,-3.943333 10.35666,-9.966667 z" />
    <path
       id="path4675"
       style="font-style:normal;font-variant:normal;font-weight:300;font-stretch:normal;font-size:43.33333206px;font-family:Chivo;-inkscape-font-specification:'Chivo, Light';font-variant-ligatures:normal;font-variant-caps:normal;font-variant-numeric:normal;font-feature-settings:normal;text-align:start;writing-mode:lr-tb;text-anchor:start;stroke-width:0.5"
       d="m 165.26195,45.80472 h 10.05333 v -2.08 h -22.35999 v 2.08 h 10.05333 v 27.646665 h 2.25333 z" />
    <path
       id="path4677"
       style="font-style:normal;font-variant:normal;font-weight:300;font-stretch:normal;font-size:43.33333206px;font-family:Chivo;-inkscape-font-specification:'Chivo, Light';font-variant-ligatures:normal;font-variant-caps:normal;font-variant-numeric:normal;font-feature-settings:normal;text-align:start;writing-mode:lr-tb;text-anchor:start;stroke-width:0.5"
       d="m 199.32736,73.451385 h 2.34 V 43.72472 h -2.34 V 57.244719 H 183.2507 V 43.72472 h -2.34 v 29.726665 h 2.34 V 59.324719 h 16.07666 z" />
  </g>
  <g
     id="text4579"
     style="font-style:normal;font-weight:normal;font-size:20px;line-height:1.25;font-family:sans-serif;letter-spacing:0px;word-spacing:0px;fill:#000000;fill-opacity:1;stroke:none;stroke-width:0.5"
     aria-label="Life perspective through mom goggles">
    <path
       id="path4680"
       style="font-style:normal;font-variant:normal;font-weight:normal;font-stretch:normal;font-size:16px;font-family:Sacramento;-inkscape-font-specification:Sacramento"
       d="m 16.118916,85.059906 q -0.0078,0.01563 -0.09375,0.132813 -0.08594,0.117187 -0.25,0.289062 -0.15625,0.164063 -0.398437,0.359375 -0.234375,0.1875 -0.5625,0.351563 -0.320313,0.15625 -0.726563,0.265625 -0.40625,0.109375 -0.898437,0.109375 -0.765625,0 -1.4375,-0.195313 -0.671875,-0.1875 -1.296875,-0.484375 -0.6171877,-0.296875 -1.2187502,-0.65625 -0.6015625,-0.359375 -1.2265625,-0.703125 -0.3828125,0.640625 -0.8828125,1.046875 -0.4921875,0.398438 -1.03125,0.625 -0.53125,0.226563 -1.0625,0.304688 -0.5234375,0.08594 -0.96875,0.08594 -0.4296875,0 -0.875,-0.09375 -0.4375,-0.08594 -0.796875,-0.289062 -0.3515625,-0.210938 -0.578125,-0.546875 -0.2265625,-0.335938 -0.2265625,-0.835938 0,-0.46875 0.21875,-0.84375 0.2109375,-0.382812 0.5859375,-0.648437 0.3828125,-0.265625 0.8984375,-0.40625 0.515625,-0.148438 1.109375,-0.148438 0.4453125,0 0.8828125,0.07813 0.4453125,0.07813 0.8671875,0.210938 0.421875,0.132812 0.8203125,0.304687 0.3984375,0.164063 0.75,0.335938 0.046875,-0.140625 0.078125,-0.28125 0.039063,-0.140625 0.0625,-0.304688 0.03125,-0.171875 0.039063,-0.375 0.015625,-0.210937 0.015625,-0.484375 0,-0.257812 -0.015625,-0.492187 -0.00781,-0.234375 -0.023437,-0.507813 -0.00781,-0.28125 -0.023437,-0.625 -0.00781,-0.351562 -0.00781,-0.835937 0,-1.117188 0.21875,-2.03125 0.21875,-0.921875 0.6484375,-1.578125 0.4296875,-0.65625 1.0703125,-1.015625 0.6406252,-0.367188 1.4921872,-0.367188 0.515625,0 0.976563,0.164063 0.46875,0.164062 0.820312,0.46875 0.359375,0.304687 0.5625,0.726562 0.210938,0.421875 0.210938,0.9375 0,0.28125 -0.07813,0.585938 -0.07813,0.304687 -0.21875,0.5625 -0.132813,0.25 -0.3125,0.414062 -0.171875,0.164063 -0.367188,0.164063 -0.109375,0 -0.195312,-0.0625 -0.08594,-0.0625 -0.08594,-0.195313 0,-0.09375 0.03906,-0.15625 0.04687,-0.07031 0.109375,-0.125 0.226562,-0.203125 0.367187,-0.5 0.148438,-0.296875 0.148438,-0.6875 0,-0.390625 -0.164063,-0.703125 -0.15625,-0.320312 -0.429687,-0.539062 -0.265625,-0.226563 -0.625,-0.34375 -0.351563,-0.125 -0.742188,-0.125 -0.734375,0 -1.273437,0.320312 -0.5390627,0.320313 -0.8906252,0.90625 -0.3515625,0.578125 -0.5234375,1.40625 -0.1640625,0.820313 -0.1640625,1.828125 0,0.484375 0.00781,0.851563 0.015625,0.367187 0.023437,0.671875 0.015625,0.304687 0.023437,0.578125 0.015625,0.265625 0.015625,0.546875 0,0.164062 -0.015625,0.359375 -0.015625,0.1875 -0.046875,0.390625 -0.03125,0.195312 -0.085937,0.390625 -0.046875,0.1875 -0.109375,0.34375 0.59375,0.3125 1.171875,0.664062 0.5781252,0.351563 1.1718752,0.648438 0.601562,0.289062 1.234375,0.484375 0.640625,0.1875 1.351562,0.1875 0.625,0 1.078125,-0.1875 0.460938,-0.1875 0.757813,-0.414063 0.304687,-0.234375 0.453125,-0.421875 0.148437,-0.195312 0.148437,-0.203125 0.08594,-0.140625 0.25,-0.140625 0.132813,0 0.210938,0.09375 0.08594,0.09375 0.08594,0.203125 0,0.08594 -0.04687,0.15625 z M 7.4939163,84.239594 Q 7.1579788,84.075531 6.7829788,83.919281 6.4157913,83.755219 6.0251663,83.630219 q -0.390625,-0.125 -0.8046875,-0.195313 -0.40625,-0.07813 -0.8125,-0.07813 -0.4609375,0 -0.8671875,0.101563 -0.40625,0.09375 -0.7109375,0.28125 -0.3046875,0.1875 -0.484375,0.453125 -0.171875,0.265625 -0.171875,0.601562 0,0.3125 0.15625,0.546875 0.15625,0.226563 0.4140625,0.382813 0.265625,0.148437 0.609375,0.226562 0.34375,0.07031 0.71875,0.07031 0.453125,0 0.9375,-0.07031 0.484375,-0.07813 0.9375,-0.273437 0.453125,-0.203125 0.8515625,-0.546875 0.3984375,-0.351563 0.6953125,-0.890625 z" />
    <path
       id="path4682"
       style="font-style:normal;font-variant:normal;font-weight:normal;font-stretch:normal;font-size:16px;font-family:Sacramento;-inkscape-font-specification:Sacramento"
       d="m 18.064229,80.200531 q 0,0.296875 -0.210938,0.507813 -0.203125,0.203125 -0.5,0.203125 -0.296875,0 -0.507812,-0.203125 -0.203125,-0.210938 -0.203125,-0.507813 0,-0.148437 0.05469,-0.273437 0.05469,-0.132813 0.148438,-0.226563 0.101562,-0.101562 0.226562,-0.15625 0.132813,-0.05469 0.28125,-0.05469 0.148438,0 0.273438,0.05469 0.132812,0.05469 0.226562,0.15625 0.101563,0.09375 0.15625,0.226563 0.05469,0.125 0.05469,0.273437 z m -1.265625,4.578125 q 0,-1.125 0.140625,-2.242187 0.01563,-0.109375 0.09375,-0.1875 0.08594,-0.08594 0.21875,-0.08594 0.117187,0 0.195312,0.09375 0.07813,0.08594 0.07813,0.203125 0,0.04687 -0.02344,0.28125 -0.01563,0.234375 -0.04687,0.5625 -0.02344,0.320313 -0.04687,0.6875 -0.01563,0.359375 -0.01563,0.664063 0,0.414062 0.07813,0.671875 0.08594,0.25 0.210937,0.390625 0.132813,0.140625 0.273438,0.1875 0.148437,0.04687 0.28125,0.04687 0.21875,0 0.453125,-0.15625 0.234375,-0.15625 0.476562,-0.4375 0.25,-0.28125 0.5,-0.671875 0.25,-0.398438 0.492188,-0.882813 0.03906,-0.07813 0.109375,-0.117187 0.07031,-0.04687 0.15625,-0.04687 0.125,0 0.203125,0.09375 0.08594,0.09375 0.08594,0.203125 0,0.07813 -0.03125,0.132812 -0.09375,0.179688 -0.234375,0.4375 -0.140625,0.257813 -0.320312,0.53125 -0.179688,0.273438 -0.398438,0.546875 -0.210937,0.265625 -0.453125,0.484375 -0.242187,0.210938 -0.507812,0.34375 -0.265625,0.132813 -0.539063,0.132813 -0.351562,0 -0.617187,-0.148438 -0.265625,-0.148437 -0.453125,-0.398437 -0.179688,-0.25 -0.273438,-0.585938 -0.08594,-0.34375 -0.08594,-0.734375 z m 0.828125,-4.578125 q 0,-0.109375 -0.08594,-0.1875 -0.07813,-0.08594 -0.1875,-0.08594 -0.109375,0 -0.1875,0.08594 -0.07813,0.07813 -0.07813,0.1875 0,0.109375 0.07813,0.1875 0.07813,0.07813 0.1875,0.07813 0.109375,0 0.1875,-0.07813 0.08594,-0.07813 0.08594,-0.1875 z" />
    <path
       id="path4684"
       style="font-style:normal;font-variant:normal;font-weight:normal;font-stretch:normal;font-size:16px;font-family:Sacramento;-inkscape-font-specification:Sacramento"
       d="m 20.775166,86.716156 q 0.578125,-0.257812 1.046875,-0.59375 0.476563,-0.335937 0.84375,-0.703125 0.375,-0.375 0.632813,-0.757812 0.265625,-0.390625 0.421875,-0.742188 0.07031,-0.171875 0.265625,-0.171875 0.132812,0 0.210937,0.09375 0.08594,0.08594 0.08594,0.195313 0,0.0625 -0.02344,0.117187 -0.171875,0.382813 -0.4375,0.796875 -0.265625,0.40625 -0.648437,0.804688 -0.375,0.390625 -0.882813,0.757812 -0.507812,0.367188 -1.164062,0.671875 0.421875,0.4375 0.734375,0.96875 0.3125,0.539063 0.515625,1.117188 0.210937,0.578125 0.3125,1.164062 0.109375,0.59375 0.109375,1.132813 0,0.492187 -0.09375,0.921875 -0.08594,0.4375 -0.265625,0.757812 -0.171875,0.320313 -0.421875,0.5 -0.25,0.1875 -0.570313,0.1875 -0.46875,0 -0.726562,-0.351562 -0.257813,-0.34375 -0.382813,-0.960938 -0.117187,-0.609375 -0.140625,-1.445312 -0.01563,-0.828125 -0.01563,-1.804688 0,-0.484375 0,-1.132812 0,-0.640625 0,-1.382813 0.0078,-0.734375 0.0078,-1.539062 0.0078,-0.8125 0.01563,-1.625 0.0078,-0.8125 0.01563,-1.59375 0.0078,-0.789063 0.02344,-1.492188 0.02344,-1.34375 0.09375,-2.398437 0.07031,-1.054688 0.226563,-1.78125 0.15625,-0.726563 0.421875,-1.101563 0.273437,-0.382812 0.6875,-0.382812 0.328125,0 0.554687,0.1875 0.226563,0.179687 0.367188,0.492187 0.140625,0.304688 0.203125,0.71875 0.0625,0.414063 0.0625,0.867188 0,0.953125 -0.164063,1.84375 -0.164062,0.890625 -0.445312,1.726562 -0.28125,0.835938 -0.664063,1.632813 -0.375,0.796875 -0.804687,1.570312 0,0.320313 0,0.695313 0,0.367187 0,0.742187 0,0.367188 -0.0078,0.710938 0,0.335937 0,0.585937 z m 0.02344,-3.9375 q 0.320312,-0.601562 0.585937,-1.265625 0.273438,-0.671875 0.46875,-1.382812 0.195313,-0.710938 0.304688,-1.453125 0.109375,-0.742188 0.109375,-1.492188 0,-0.375 -0.03906,-0.679687 -0.03125,-0.304688 -0.109375,-0.515625 -0.07031,-0.21875 -0.1875,-0.335938 -0.109375,-0.125 -0.257812,-0.125 -0.15625,0 -0.273438,0.1875 -0.117187,0.1875 -0.203125,0.5 -0.08594,0.3125 -0.148437,0.71875 -0.05469,0.40625 -0.09375,0.851563 -0.03906,0.4375 -0.0625,0.882812 -0.02344,0.4375 -0.03906,0.828125 -0.0078,0.382813 -0.01563,0.679688 0,0.296875 0,0.445312 -0.0078,0.3125 -0.01563,0.554688 0,0.242187 -0.0078,0.476562 -0.0078,0.234375 -0.01563,0.5 0,0.265625 0,0.625 z m -0.02344,4.898438 q 0,0.492187 -0.0078,0.914062 0,0.429688 0,0.78125 0,0.726563 0.0078,1.4375 0.0078,0.710938 0.07031,1.273438 0.07031,0.570312 0.203125,0.914062 0.140625,0.351563 0.398437,0.351563 0.234375,0 0.382813,-0.210938 0.148437,-0.210937 0.226562,-0.5 0.08594,-0.289062 0.117188,-0.59375 0.03125,-0.296875 0.03125,-0.484375 0,-0.476562 -0.09375,-1 -0.08594,-0.523437 -0.273438,-1.039062 -0.179687,-0.507813 -0.445312,-0.984375 -0.265625,-0.476563 -0.617188,-0.859375 z" />
    <path
       id="path4686"
       style="font-style:normal;font-variant:normal;font-weight:normal;font-stretch:normal;font-size:16px;font-family:Sacramento;-inkscape-font-specification:Sacramento"
       d="m 24.665791,85.473969 q 0.164063,0.226562 0.421875,0.367187 0.257813,0.132813 0.632813,0.132813 0.382812,0 0.695312,-0.179688 0.3125,-0.1875 0.570313,-0.484375 0.257812,-0.296875 0.460937,-0.664062 0.203125,-0.367188 0.367188,-0.734375 0.03906,-0.08594 0.109375,-0.125 0.07031,-0.04687 0.15625,-0.04687 0.132812,0 0.210937,0.09375 0.08594,0.09375 0.08594,0.203125 0,0.03906 -0.0078,0.07031 -0.0078,0.02344 -0.02344,0.05469 -0.539063,1.1875 -1.179688,1.789062 -0.632812,0.601563 -1.4375,0.617188 -0.515625,0 -0.890625,-0.203125 -0.375,-0.195313 -0.617187,-0.507813 -0.242188,-0.320312 -0.359375,-0.71875 -0.117188,-0.398437 -0.117188,-0.796875 0,-0.398437 0.09375,-0.734375 0.101563,-0.335937 0.28125,-0.585937 0.1875,-0.25 0.4375,-0.390625 0.257813,-0.140625 0.5625,-0.140625 0.179688,0 0.351563,0.07813 0.179687,0.07031 0.320312,0.210937 0.140625,0.132813 0.226563,0.328125 0.08594,0.195313 0.08594,0.445313 0,0.320312 -0.109375,0.601562 -0.109375,0.28125 -0.304687,0.523438 -0.1875,0.242187 -0.453125,0.445312 -0.265625,0.203125 -0.570313,0.351563 z m -0.234375,-0.507813 q 0.242188,-0.101562 0.4375,-0.257812 0.203125,-0.15625 0.34375,-0.34375 0.140625,-0.1875 0.21875,-0.390625 0.07813,-0.210938 0.07813,-0.421875 0,-0.234375 -0.117187,-0.351563 -0.117188,-0.125 -0.273438,-0.125 -0.210937,0 -0.359375,0.117188 -0.148437,0.117187 -0.242187,0.304687 -0.09375,0.1875 -0.140625,0.421875 -0.03906,0.226563 -0.03906,0.453125 0,0.140625 0.02344,0.296875 0.03125,0.15625 0.07031,0.296875 z" />
    <path
       id="path4688"
       style="font-style:normal;font-variant:normal;font-weight:300;font-stretch:normal;font-size:9.33333302px;font-family:Chivo;-inkscape-font-specification:'Chivo, Light';font-variant-ligatures:normal;font-variant-caps:normal;font-variant-numeric:normal;font-feature-settings:normal;text-align:start;writing-mode:lr-tb;text-anchor:start"
       d="M 32.938583,82.282677 32.835916,81.56401 h -0.317333 v 6.458667 h 0.476 v -2.352 c 0.308,0.466667 0.849333,0.756 1.521333,0.756 1.045333,0 1.894667,-0.821333 1.894667,-2.333333 v -0.102667 c 0,-1.773333 -0.849334,-2.52 -1.894667,-2.52 -0.7,0 -1.222666,0.261333 -1.577333,0.812 z m 0.04667,1.792 v -0.112 c 0,-1.577333 0.681333,-2.062667 1.484,-2.062667 0.811999,0 1.465333,0.522667 1.465333,2.072 v 0.102667 c 0,1.334667 -0.653334,1.922667 -1.465333,1.922667 -0.812,0 -1.484,-0.578667 -1.484,-1.922667 z" />
    <path
       id="path4690"
       style="font-style:normal;font-variant:normal;font-weight:300;font-stretch:normal;font-size:9.33333302px;font-family:Chivo;-inkscape-font-specification:'Chivo, Light';font-variant-ligatures:normal;font-variant-caps:normal;font-variant-numeric:normal;font-feature-settings:normal;text-align:start;writing-mode:lr-tb;text-anchor:start"
       d="m 41.525102,84.569344 h -0.466666 c 0,0.98 -0.653334,1.428 -1.390667,1.428 -0.858667,0 -1.521333,-0.625334 -1.521333,-1.922667 v -0.07467 h 3.378666 v -0.597333 c 0,-1.241333 -0.821333,-1.932 -1.866666,-1.932 -1.176,0 -1.988,0.868 -1.988,2.408 v 0.14 c 0,1.54 0.821333,2.408 1.997333,2.408 1.026667,0 1.857333,-0.662667 1.857333,-1.857333 z M 39.658436,81.90001 c 0.765333,0 1.4,0.485334 1.4,1.502667 v 0.168 h -2.902667 c 0.07467,-1.12 0.7,-1.670667 1.502667,-1.670667 z" />
    <path
       id="path4692"
       style="font-style:normal;font-variant:normal;font-weight:300;font-stretch:normal;font-size:9.33333302px;font-family:Chivo;-inkscape-font-specification:'Chivo, Light';font-variant-ligatures:normal;font-variant-caps:normal;font-variant-numeric:normal;font-feature-settings:normal;text-align:start;writing-mode:lr-tb;text-anchor:start"
       d="m 46.011082,83.27201 h 0.438666 c 0,0 0.01867,-0.09333 0.01867,-0.224 0,-0.84 -0.494667,-1.577333 -1.530667,-1.577333 -1.036,0 -1.353333,0.802667 -1.353333,0.802667 L 43.481748,81.56401 h -0.317333 v 4.769334 h 0.476 v -3.024 c 0,-0.513334 0.28,-1.409334 1.204,-1.409334 0.924,0 1.166667,0.728 1.166667,1.222667 z" />
    <path
       id="path4694"
       style="font-style:normal;font-variant:normal;font-weight:300;font-stretch:normal;font-size:9.33333302px;font-family:Chivo;-inkscape-font-specification:'Chivo, Light';font-variant-ligatures:normal;font-variant-caps:normal;font-variant-numeric:normal;font-feature-settings:normal;text-align:start;writing-mode:lr-tb;text-anchor:start"
       d="m 47.861268,84.86801 h -0.466667 c 0,0 -0.0093,0.056 -0.0093,0.233334 0,0.485333 0.42,1.325333 1.894666,1.325333 1.110667,0 1.950667,-0.373333 1.950667,-1.456 0,-1.754667 -3.229333,-0.933333 -3.229333,-2.212 0,-0.233333 0.056,-0.858667 1.288,-0.858667 1.269333,0 1.353333,0.653334 1.353333,0.868 v 0.121334 h 0.466667 c 0,0 0.0093,-0.07467 0.0093,-0.130667 0,-0.56 -0.476,-1.288 -1.745333,-1.288 -1.278667,0 -1.848,0.588 -1.848,1.306667 0,1.810666 3.229333,0.821333 3.229333,2.286666 0,0.541334 -0.476,0.933334 -1.353333,0.933334 -0.952,0 -1.549333,-0.354667 -1.549333,-0.998667 0,-0.04667 0,-0.084 0.0093,-0.130667 z" />
    <path
       id="path4696"
       style="font-style:normal;font-variant:normal;font-weight:300;font-stretch:normal;font-size:9.33333302px;font-family:Chivo;-inkscape-font-specification:'Chivo, Light';font-variant-ligatures:normal;font-variant-caps:normal;font-variant-numeric:normal;font-feature-settings:normal;text-align:start;writing-mode:lr-tb;text-anchor:start"
       d="M 53.136497,82.282677 53.03383,81.56401 h -0.317333 v 6.458667 h 0.476 v -2.352 c 0.308,0.466667 0.849333,0.756 1.521333,0.756 1.045334,0 1.894667,-0.821333 1.894667,-2.333333 v -0.102667 c 0,-1.773333 -0.849333,-2.52 -1.894667,-2.52 -0.7,0 -1.222666,0.261333 -1.577333,0.812 z m 0.04667,1.792 v -0.112 c 0,-1.577333 0.681333,-2.062667 1.484,-2.062667 0.812,0 1.465333,0.522667 1.465333,2.072 v 0.102667 c 0,1.334667 -0.653333,1.922667 -1.465333,1.922667 -0.812,0 -1.484,-0.578667 -1.484,-1.922667 z" />
    <path
       id="path4698"
       style="font-style:normal;font-variant:normal;font-weight:300;font-stretch:normal;font-size:9.33333302px;font-family:Chivo;-inkscape-font-specification:'Chivo, Light';font-variant-ligatures:normal;font-variant-caps:normal;font-variant-numeric:normal;font-feature-settings:normal;text-align:start;writing-mode:lr-tb;text-anchor:start"
       d="m 61.72302,84.569344 h -0.466666 c 0,0.98 -0.653334,1.428 -1.390667,1.428 -0.858667,0 -1.521333,-0.625334 -1.521333,-1.922667 v -0.07467 h 3.378666 v -0.597333 c 0,-1.241333 -0.821333,-1.932 -1.866666,-1.932 -1.176,0 -1.988,0.868 -1.988,2.408 v 0.14 c 0,1.54 0.821333,2.408 1.997333,2.408 1.026667,0 1.857333,-0.662667 1.857333,-1.857333 z M 59.856354,81.90001 c 0.765333,0 1.4,0.485334 1.4,1.502667 v 0.168 h -2.902667 c 0.07467,-1.12 0.7,-1.670667 1.502667,-1.670667 z" />
    <path
       id="path4700"
       style="font-style:normal;font-variant:normal;font-weight:300;font-stretch:normal;font-size:9.33333302px;font-family:Chivo;-inkscape-font-specification:'Chivo, Light';font-variant-ligatures:normal;font-variant-caps:normal;font-variant-numeric:normal;font-feature-settings:normal;text-align:start;writing-mode:lr-tb;text-anchor:start"
       d="m 66.918333,84.494677 h -0.466667 c 0,1.036 -0.634667,1.502667 -1.390666,1.502667 -0.858667,0 -1.521334,-0.625334 -1.521334,-1.922667 v -0.252 c 0,-1.297333 0.653334,-1.922667 1.512,-1.922667 0.765333,0 1.4,0.485334 1.4,1.502667 h 0.466667 c 0,-1.241333 -0.821334,-1.932 -1.866667,-1.932 -1.176,0 -1.988,0.868 -1.988,2.408 v 0.14 c 0,1.54 0.821334,2.408 1.997334,2.408 1.045333,0 1.857333,-0.690667 1.857333,-1.932 z" />
    <path
       id="path4702"
       style="font-style:normal;font-variant:normal;font-weight:300;font-stretch:normal;font-size:9.33333302px;font-family:Chivo;-inkscape-font-specification:'Chivo, Light';font-variant-ligatures:normal;font-variant-caps:normal;font-variant-numeric:normal;font-feature-settings:normal;text-align:start;writing-mode:lr-tb;text-anchor:start"
       d="m 70.18427,86.26801 v -0.42 c -0.149333,0.06533 -0.438666,0.149334 -0.578666,0.149334 -0.261334,0 -0.532,-0.07467 -0.532,-0.625334 V 81.993344 H 70.18427 V 81.56401 h -1.110666 v -1.521333 h -0.308 l -0.168,1.521333 h -0.522667 v 0.429334 h 0.522667 v 3.397333 c 0,0.718667 0.401333,1.036 0.952,1.036 0.233333,0 0.476,-0.06533 0.634666,-0.158667 z" />
    <path
       id="path4704"
       style="font-style:normal;font-variant:normal;font-weight:300;font-stretch:normal;font-size:9.33333302px;font-family:Chivo;-inkscape-font-specification:'Chivo, Light';font-variant-ligatures:normal;font-variant-caps:normal;font-variant-numeric:normal;font-feature-settings:normal;text-align:start;writing-mode:lr-tb;text-anchor:start"
       d="m 71.656166,79.613344 v 0.504 h 0.550667 v -0.504 z m 0.03733,6.72 h 0.476 V 81.56401 h -0.476 z" />
    <path
       id="path4706"
       style="font-style:normal;font-variant:normal;font-weight:300;font-stretch:normal;font-size:9.33333302px;font-family:Chivo;-inkscape-font-specification:'Chivo, Light';font-variant-ligatures:normal;font-variant-caps:normal;font-variant-numeric:normal;font-feature-settings:normal;text-align:start;writing-mode:lr-tb;text-anchor:start"
       d="m 75.779309,86.333344 1.932,-4.769334 h -0.466666 l -1.642667,4.078667 h -0.01867 L 73.949976,81.56401 h -0.513333 l 1.922666,4.769334 z" />
    <path
       id="path4708"
       style="font-style:normal;font-variant:normal;font-weight:300;font-stretch:normal;font-size:9.33333302px;font-family:Chivo;-inkscape-font-specification:'Chivo, Light';font-variant-ligatures:normal;font-variant-caps:normal;font-variant-numeric:normal;font-feature-settings:normal;text-align:start;writing-mode:lr-tb;text-anchor:start"
       d="m 82.431349,84.569344 h -0.466667 c 0,0.98 -0.653333,1.428 -1.390667,1.428 -0.858666,0 -1.521333,-0.625334 -1.521333,-1.922667 v -0.07467 h 3.378667 v -0.597333 c 0,-1.241333 -0.821334,-1.932 -1.866667,-1.932 -1.176,0 -1.988,0.868 -1.988,2.408 v 0.14 c 0,1.54 0.821333,2.408 1.997333,2.408 1.026667,0 1.857334,-0.662667 1.857334,-1.857333 z M 80.564682,81.90001 c 0.765333,0 1.4,0.485334 1.4,1.502667 v 0.168 h -2.902667 c 0.07467,-1.12 0.7,-1.670667 1.502667,-1.670667 z" />
    <path
       id="path4710"
       style="font-style:normal;font-variant:normal;font-weight:normal;font-stretch:normal;font-size:16px;font-family:Sacramento;-inkscape-font-specification:Sacramento"
       d="m 94.139745,78.513031 q 0,0.125 -0.08594,0.203125 -0.08594,0.07031 -0.210937,0.07031 h -3.960938 v 0.08594 q 0,0.476563 -0.07031,1.015625 -0.07031,0.539063 -0.195313,1.078125 -0.117187,0.53125 -0.273437,1.039063 -0.148438,0.507812 -0.3125,0.9375 -0.15625,0.429687 -0.3125,0.75 -0.15625,0.3125 -0.28125,0.46875 0.101562,0.359375 0.242187,0.671875 0.140625,0.304687 0.3125,0.539062 0.179688,0.226563 0.382813,0.359375 0.203125,0.132813 0.4375,0.132813 0.273437,0 0.539062,-0.226563 0.273438,-0.234375 0.5,-0.546875 0.234375,-0.320312 0.40625,-0.640625 0.179688,-0.328125 0.257813,-0.523437 0.07813,-0.1875 0.273437,-0.1875 0.132813,0 0.210938,0.09375 0.08594,0.09375 0.08594,0.203125 0,0.05469 -0.02344,0.109375 -0.02344,0.05469 -0.117188,0.25 -0.08594,0.195312 -0.234375,0.453125 -0.140625,0.257812 -0.335937,0.546875 -0.1875,0.28125 -0.429688,0.515625 -0.234375,0.234375 -0.507812,0.390625 -0.273438,0.15625 -0.578125,0.15625 -0.539063,0 -0.96875,-0.351563 -0.429688,-0.351562 -0.734375,-0.984375 -0.296875,-0.632812 -0.453125,-1.5 -0.15625,-0.867187 -0.15625,-1.898437 0,-0.257813 0.0078,-0.601563 0.0078,-0.351562 0.03125,-0.734375 0.02344,-0.390625 0.07031,-0.796875 0.04687,-0.414062 0.125,-0.804687 h -2.804688 q -0.125,0 -0.210937,-0.07031 -0.08594,-0.07813 -0.08594,-0.203125 0,-0.125 0.08594,-0.195312 0.08594,-0.07813 0.210937,-0.07813 h 2.9375 q 0.07813,-0.28125 0.179688,-0.515625 0.109375,-0.234375 0.242187,-0.40625 0.140625,-0.171875 0.304688,-0.265625 0.171875,-0.101563 0.375,-0.101563 0.195312,0 0.335937,0.101563 0.148438,0.09375 0.25,0.265625 0.101563,0.171875 0.15625,0.40625 0.0625,0.234375 0.09375,0.515625 h 3.992188 q 0.125,0 0.210937,0.07813 0.08594,0.07031 0.08594,0.195312 z m -5.882813,4.867188 q 0.234375,-0.515625 0.421875,-1.109375 0.195313,-0.601563 0.328125,-1.210938 0.140625,-0.609375 0.210938,-1.195312 0.07813,-0.585938 0.07813,-1.078125 H 88.37412 q -0.109375,0.484375 -0.179688,1.203125 -0.0625,0.710937 -0.0625,1.734375 0,0.570312 0.03125,0.960937 0.03125,0.382813 0.09375,0.695313 z m 0.726563,-5.84375 q -0.07031,0 -0.203125,0.15625 -0.132813,0.148437 -0.265625,0.546875 h 0.75 q -0.03906,-0.328125 -0.117188,-0.515625 -0.07031,-0.1875 -0.164062,-0.1875 z m -0.601563,6.40625 v 0.0078 z" />
    <path
       id="path4712"
       style="font-style:normal;font-variant:normal;font-weight:normal;font-stretch:normal;font-size:16px;font-family:Sacramento;-inkscape-font-specification:Sacramento"
       d="m 92.178807,85.669281 q 0.125,-0.265625 0.289063,-0.570312 0.164062,-0.3125 0.351562,-0.632813 0.1875,-0.328125 0.398438,-0.648437 0.210937,-0.320313 0.4375,-0.601563 0.226562,-0.273437 0.453125,-0.390625 0.234375,-0.125 0.4375,-0.125 0.203125,0 0.351562,0.08594 0.15625,0.07813 0.25,0.21875 0.101563,0.140625 0.148438,0.328125 0.05469,0.1875 0.05469,0.40625 0,0.179687 -0.03906,0.484375 -0.03125,0.296875 -0.03125,0.625 0,0.1875 0.01563,0.375 0.02344,0.179687 0.07031,0.328125 0.05469,0.140625 0.15625,0.234375 0.101563,0.08594 0.265625,0.08594 0.1875,0 0.375,-0.101562 0.1875,-0.109375 0.367188,-0.28125 0.179687,-0.179688 0.34375,-0.390625 0.164062,-0.21875 0.296875,-0.429688 0.132812,-0.21875 0.234375,-0.414062 0.101562,-0.203125 0.164062,-0.335938 0.07813,-0.179687 0.273438,-0.179687 0.132812,0 0.210937,0.09375 0.07813,0.09375 0.07813,0.203125 0,0.0625 -0.02344,0.117187 -0.03125,0.0625 -0.125,0.257813 -0.08594,0.195312 -0.242188,0.453125 -0.148437,0.257812 -0.351562,0.539062 -0.203125,0.28125 -0.453125,0.523438 -0.242188,0.234375 -0.53125,0.390625 -0.28125,0.148437 -0.59375,0.148437 -0.359375,0 -0.578125,-0.148437 -0.21875,-0.15625 -0.34375,-0.390625 -0.117188,-0.234375 -0.164063,-0.523438 -0.03906,-0.289062 -0.03906,-0.5625 0,-0.140625 0.0078,-0.296875 0.01563,-0.164062 0.03125,-0.320312 0.01563,-0.15625 0.02344,-0.289063 0.01563,-0.140625 0.01563,-0.234375 0,-0.242187 -0.07031,-0.328125 -0.0625,-0.08594 -0.148437,-0.08594 -0.125,0 -0.289063,0.148437 -0.15625,0.140625 -0.335937,0.375 -0.171875,0.234375 -0.351563,0.53125 -0.171875,0.289063 -0.335937,0.578125 -0.164063,0.289063 -0.296875,0.554688 -0.132813,0.257812 -0.21875,0.429687 -0.164063,0.328125 -0.335938,0.4375 -0.164062,0.117188 -0.296875,0.117188 -0.242187,0 -0.375,-0.1875 -0.125,-0.195313 -0.125,-0.46875 v -0.492188 q 0,-1.476562 0,-2.8125 0.0078,-1.34375 0.03906,-2.492187 0.03906,-1.15625 0.117187,-2.085938 0.08594,-0.9375 0.25,-1.59375 0.164063,-0.664062 0.414063,-1.023437 0.257812,-0.359375 0.640625,-0.359375 0.328125,0 0.554687,0.179687 0.226563,0.179688 0.367188,0.492188 0.140625,0.304687 0.203125,0.71875 0.0625,0.40625 0.0625,0.859375 0,0.921875 -0.171875,1.8125 -0.164063,0.882812 -0.445313,1.726562 -0.28125,0.84375 -0.65625,1.648438 -0.375,0.796875 -0.789062,1.554687 0,0.140625 0,0.335938 0,0.195312 0,0.390625 0,0.195312 0,0.367187 0,0.171875 0,0.273438 z m 0,-2.882812 q 0.328125,-0.71875 0.59375,-1.398438 0.273438,-0.6875 0.460938,-1.367187 0.195312,-0.679688 0.304687,-1.375 0.109375,-0.703125 0.109375,-1.460938 0,-0.125 -0.01563,-0.398437 -0.0078,-0.273438 -0.07031,-0.554688 -0.05469,-0.28125 -0.179688,-0.492187 -0.117187,-0.210938 -0.335937,-0.210938 -0.171875,0 -0.296875,0.234375 -0.125,0.226563 -0.21875,0.625 -0.09375,0.390625 -0.15625,0.914063 -0.0625,0.523437 -0.101563,1.109375 -0.03906,0.585937 -0.0625,1.203125 -0.01563,0.617187 -0.02344,1.203125 -0.0078,0.578125 -0.0078,1.085937 0,0.507813 0,0.882813 z" />
    <path
       id="path4714"
       style="font-style:normal;font-variant:normal;font-weight:normal;font-stretch:normal;font-size:16px;font-family:Sacramento;-inkscape-font-specification:Sacramento"
       d="m 98.381932,83.122406 q -0.03125,0.210938 -0.07813,0.398438 -0.04687,0.179687 -0.09375,0.320312 -0.03906,0.132813 -0.07031,0.21875 -0.03125,0.08594 -0.03906,0.09375 -0.07813,0.179688 -0.273437,0.179688 -0.109375,0 -0.203125,-0.07813 -0.09375,-0.08594 -0.09375,-0.210938 0,-0.04687 0.01563,-0.07031 0.01563,-0.02344 0.04687,-0.09375 0.03125,-0.07031 0.07813,-0.234375 0.04687,-0.164063 0.117187,-0.507813 -0.132812,0 -0.273437,-0.0078 -0.140625,-0.0078 -0.257813,-0.05469 -0.125,-0.04687 -0.203125,-0.148437 -0.07813,-0.101563 -0.07813,-0.28125 0,-0.132813 0.07813,-0.359375 0.07031,-0.226563 0.195313,-0.445313 0.125,-0.21875 0.28125,-0.375 0.15625,-0.164062 0.3125,-0.164062 0.179687,0 0.289062,0.132812 0.117188,0.132813 0.179688,0.328125 0.0625,0.1875 0.08594,0.398438 0.03125,0.210937 0.03125,0.367187 0.132813,0 0.257813,0 0.132812,-0.0078 0.25,-0.0078 0.445312,0 0.679687,0.195312 0.234375,0.195313 0.234375,0.640625 0,0.179688 -0.02344,0.375 -0.02344,0.195313 -0.05469,0.40625 -0.03125,0.203125 -0.05469,0.40625 -0.02344,0.203125 -0.02344,0.398438 0,0.28125 0.07813,0.46875 0.07813,0.179687 0.195313,0.289062 0.11719,0.109375 0.25,0.15625 0.13281,0.03906 0.24219,0.03906 0.33593,0 0.63281,-0.21875 0.29687,-0.21875 0.54687,-0.523438 0.25,-0.3125 0.44532,-0.65625 0.20312,-0.34375 0.33593,-0.601562 0.0391,-0.07031 0.10938,-0.109375 0.0703,-0.03906 0.14844,-0.03906 0.14062,0 0.21875,0.09375 0.0781,0.08594 0.0781,0.195313 0,0.07813 -0.0312,0.140625 -0.17969,0.320312 -0.42187,0.726562 -0.23438,0.398438 -0.53907,0.75 -0.30468,0.351563 -0.6875,0.59375 -0.375,0.242188 -0.82812,0.242188 -0.28125,0 -0.53125,-0.109375 -0.25,-0.101563 -0.4375,-0.296875 -0.179688,-0.203125 -0.289063,-0.492188 -0.109375,-0.296875 -0.109375,-0.664062 0,-0.390625 0.07813,-0.773438 0.07813,-0.390625 0.07813,-0.742187 0,-0.148438 -0.07031,-0.21875 -0.0625,-0.07813 -0.289063,-0.07813 -0.109375,0 -0.242187,0 -0.125,0 -0.273438,0.0078 z m -0.523437,-0.578125 q 0,-0.05469 -0.0078,-0.140625 0,-0.09375 -0.01563,-0.179687 -0.0078,-0.08594 -0.03125,-0.148438 -0.01563,-0.0625 -0.03906,-0.0625 -0.02344,0 -0.0625,0.0625 -0.03125,0.05469 -0.07031,0.140625 -0.03906,0.07813 -0.07031,0.171875 -0.03125,0.09375 -0.04687,0.15625 z" />
    <path
       id="path4716"
       style="font-style:normal;font-variant:normal;font-weight:normal;font-stretch:normal;font-size:16px;font-family:Sacramento;-inkscape-font-specification:Sacramento"
       d="m 106.00693,85.473969 q -0.19531,0 -0.34375,-0.03125 -0.11719,0.234375 -0.28125,0.4375 -0.16406,0.195312 -0.38281,0.34375 -0.21094,0.148437 -0.47656,0.234375 -0.26563,0.08594 -0.57813,0.08594 -0.36719,0 -0.67187,-0.132812 -0.30469,-0.125 -0.53125,-0.351563 -0.22657,-0.234375 -0.35157,-0.554687 -0.125,-0.328125 -0.125,-0.71875 0,-0.5 0.17969,-0.867188 0.17969,-0.375 0.41406,-0.617187 0.23438,-0.25 0.46875,-0.367188 0.23438,-0.125 0.35157,-0.125 0.13281,0 0.19531,0.07031 0.0703,0.07031 0.0703,0.1875 0,0.132812 -0.0859,0.203125 -0.0781,0.0625 -0.20312,0.125 -0.125,0.0625 -0.26563,0.179687 -0.14062,0.109375 -0.26562,0.28125 -0.11719,0.171875 -0.19531,0.40625 -0.0781,0.234375 -0.0781,0.523438 0,0.257812 0.0781,0.484375 0.0781,0.21875 0.22656,0.382812 0.14844,0.15625 0.35156,0.25 0.20313,0.08594 0.45313,0.08594 0.44531,0 0.73437,-0.203125 0.29688,-0.210938 0.45313,-0.53125 -0.46094,-0.242188 -0.75782,-0.6875 -0.29687,-0.445313 -0.29687,-1 0,-0.445313 0.21094,-0.726563 0.21875,-0.28125 0.57031,-0.28125 0.21094,0 0.39844,0.101563 0.1875,0.101562 0.32812,0.320312 0.14844,0.21875 0.23438,0.5625 0.0859,0.34375 0.0859,0.820313 0,0.25 -0.0625,0.523437 0.0469,0.0078 0.0937,0.0078 0.0469,0 0.10157,0 0.26562,0 0.47656,-0.0625 0.21094,-0.0625 0.38281,-0.1875 0.17188,-0.125 0.30469,-0.320313 0.14062,-0.195312 0.26562,-0.453125 0.0234,-0.04687 0.10157,-0.08594 0.0781,-0.04687 0.15625,-0.04687 0.10156,0 0.1875,0.08594 0.0937,0.07813 0.0937,0.210938 0,0.0625 -0.0312,0.140625 -0.0312,0.07031 -0.0625,0.132812 -0.13282,0.234375 -0.3125,0.453125 -0.17188,0.210938 -0.41407,0.375 -0.23437,0.15625 -0.53125,0.25 -0.29687,0.09375 -0.66406,0.08594 z m -1.33594,-1.96875 q 0,0.148437 0.0391,0.3125 0.0391,0.164062 0.11718,0.328125 0.0859,0.15625 0.20313,0.304687 0.125,0.140625 0.28906,0.242188 0.0234,-0.164063 0.0234,-0.320313 0,-0.210937 -0.0312,-0.429687 -0.0312,-0.21875 -0.0937,-0.398438 -0.0547,-0.1875 -0.14063,-0.296875 -0.0859,-0.117187 -0.20312,-0.117187 -0.0469,0 -0.125,0.07031 -0.0781,0.07031 -0.0781,0.304688 z" />
    <path
       id="path4718"
       style="font-style:normal;font-variant:normal;font-weight:normal;font-stretch:normal;font-size:16px;font-family:Sacramento;-inkscape-font-specification:Sacramento"
       d="m 110.06162,85.458344 q -0.27344,0.445312 -0.64063,0.703125 -0.35937,0.257812 -0.72656,0.257812 -0.29687,0 -0.53125,-0.109375 -0.23437,-0.109375 -0.40625,-0.304687 -0.17187,-0.203125 -0.26562,-0.484375 -0.0859,-0.28125 -0.0859,-0.632813 0,-0.546875 0.10156,-0.96875 0.10938,-0.421875 0.23438,-0.703125 0.125,-0.289062 0.23437,-0.4375 0.10938,-0.148437 0.10938,-0.148437 0.0391,-0.04687 0.0937,-0.07031 0.0625,-0.02344 0.125,-0.02344 0.125,0 0.20312,0.09375 0.0859,0.08594 0.0859,0.203125 0,0.04687 -0.0234,0.09375 -0.0156,0.04687 -0.0391,0.09375 -0.0391,0.07031 -0.125,0.21875 -0.0859,0.140625 -0.17969,0.375 -0.0937,0.234375 -0.16406,0.554687 -0.0703,0.3125 -0.0703,0.71875 0,0.460938 0.17968,0.703125 0.1875,0.234375 0.52344,0.234375 0.14063,0 0.32031,-0.08594 0.1875,-0.09375 0.35938,-0.28125 0.17969,-0.1875 0.3125,-0.476563 0.13281,-0.289062 0.17187,-0.679687 l 0.11719,-1.34375 q 0.0156,-0.117188 0.10156,-0.195313 0.0859,-0.07813 0.20313,-0.07813 0.13281,0 0.21094,0.101563 0.0781,0.09375 0.0781,0.21875 l -0.10156,1.296875 q -0.0156,0.164062 0.008,0.429687 0.0312,0.265625 0.11719,0.523438 0.0859,0.257812 0.25781,0.445312 0.17188,0.179688 0.45313,0.179688 0.20312,0 0.39843,-0.101563 0.19532,-0.109375 0.375,-0.28125 0.17969,-0.171875 0.32813,-0.382812 0.15625,-0.21875 0.28125,-0.4375 0.13281,-0.21875 0.22656,-0.414063 0.0937,-0.203125 0.15625,-0.34375 0.0391,-0.08594 0.10938,-0.132812 0.0703,-0.04687 0.15625,-0.04687 0.14062,0 0.21875,0.09375 0.0781,0.09375 0.0781,0.203125 0,0.0625 -0.0234,0.117187 -0.0312,0.0625 -0.125,0.265625 -0.0859,0.195313 -0.23437,0.453125 -0.14063,0.25 -0.34375,0.53125 -0.20313,0.28125 -0.45313,0.523438 -0.25,0.234375 -0.54687,0.390625 -0.28906,0.148437 -0.625,0.148437 -0.46094,0 -0.76563,-0.257812 -0.30468,-0.265625 -0.45312,-0.75 z" />
    <path
       id="path4720"
       style="font-style:normal;font-variant:normal;font-weight:normal;font-stretch:normal;font-size:16px;font-family:Sacramento;-inkscape-font-specification:Sacramento"
       d="m 115.88974,87.098969 q 1.46875,-1.914063 2.03907,-3.179688 0.0391,-0.08594 0.10156,-0.125 0.0703,-0.04687 0.15625,-0.04687 0.13281,0 0.21875,0.09375 0.0859,0.08594 0.0859,0.203125 0,0.05469 -0.0234,0.109375 -0.34375,0.78125 -0.97656,1.742188 -0.63282,0.960937 -1.60157,2.171875 0,0.492187 0.008,0.984375 0.008,0.492187 0.008,1.078125 0,0.585937 -0.0312,1.15625 -0.0234,0.578125 -0.0937,1.09375 -0.0703,0.523437 -0.19531,0.960937 -0.11719,0.445313 -0.3125,0.765625 -0.1875,0.328125 -0.46094,0.507813 -0.26563,0.1875 -0.63281,0.1875 -0.52344,0 -0.80469,-0.398438 -0.28125,-0.398437 -0.28125,-1.132812 0,-0.390625 0.0703,-0.851563 0.0781,-0.453125 0.21875,-0.9375 0.14063,-0.484375 0.33594,-0.984375 0.20312,-0.492187 0.44531,-0.960937 0.24219,-0.46875 0.52344,-0.898438 0.28906,-0.429687 0.60937,-0.78125 0.008,-0.546875 0.008,-1.085937 0.008,-0.539063 0.0234,-0.992188 -0.23437,0.296875 -0.5625,0.46875 -0.32031,0.171875 -0.64062,0.171875 -0.27344,0 -0.5,-0.101562 -0.21875,-0.109375 -0.375,-0.296875 -0.15625,-0.195313 -0.24219,-0.453125 -0.0859,-0.257813 -0.0859,-0.5625 0,-0.609375 0.20313,-1.070313 0.21094,-0.46875 0.53125,-0.78125 0.32031,-0.3125 0.70312,-0.46875 0.39063,-0.15625 0.75,-0.15625 0.24219,0 0.44532,0.0625 0.20312,0.0625 0.34375,0.140625 0.14843,0.07813 0.22656,0.148438 0.0781,0.07031 0.0859,0.07813 0.0859,0.09375 0.0859,0.210937 0,0.117188 -0.0859,0.210938 -0.0859,0.08594 -0.20313,0.08594 -0.10937,0 -0.21094,-0.08594 -0.0312,-0.02344 -0.0859,-0.0625 -0.0469,-0.04687 -0.13282,-0.09375 -0.0781,-0.04687 -0.19531,-0.07813 -0.10937,-0.03125 -0.26562,-0.03125 -0.23438,0 -0.51563,0.109375 -0.28125,0.101562 -0.52344,0.328125 -0.24218,0.226562 -0.40625,0.585937 -0.16406,0.351563 -0.16406,0.851563 0,0.375 0.16406,0.609375 0.16407,0.226562 0.50782,0.226562 0.16406,0 0.34375,-0.09375 0.1875,-0.09375 0.35937,-0.289062 0.17188,-0.195313 0.29688,-0.492188 0.13281,-0.296875 0.1875,-0.703125 0.0156,-0.109375 0.10156,-0.179687 0.0859,-0.07813 0.20312,-0.07813 0.13282,0 0.20313,0.09375 0.0781,0.09375 0.0781,0.210937 0,0.0078 -0.008,0.242188 -0.008,0.226562 -0.0156,0.609375 -0.008,0.382812 -0.0234,0.890625 -0.008,0.5 -0.0156,1.0625 z m -0.59375,1.710937 q -0.36718,0.507813 -0.66406,1.101563 -0.29687,0.601562 -0.50781,1.210937 -0.21094,0.609375 -0.32813,1.179688 -0.10937,0.578125 -0.10937,1.03125 0,0.289062 0.0469,0.460937 0.0547,0.171875 0.125,0.265625 0.0781,0.09375 0.16407,0.125 0.0937,0.03125 0.17187,0.03125 0.24219,0 0.42188,-0.195312 0.17968,-0.195313 0.30468,-0.523438 0.125,-0.320312 0.20313,-0.742187 0.0781,-0.421875 0.11719,-0.875 0.0391,-0.445313 0.0547,-0.890625 0.0156,-0.445313 0.0156,-0.820313 0,-0.335937 0,-0.671875 0,-0.335937 -0.0156,-0.6875 z" />
    <path
       id="path4722"
       style="font-style:normal;font-variant:normal;font-weight:normal;font-stretch:normal;font-size:16px;font-family:Sacramento;-inkscape-font-specification:Sacramento"
       d="m 118.55381,85.669281 q 0.125,-0.265625 0.28906,-0.570312 0.16406,-0.3125 0.35156,-0.632813 0.1875,-0.328125 0.39844,-0.648437 0.21094,-0.320313 0.4375,-0.601563 0.22656,-0.273437 0.45312,-0.390625 0.23438,-0.125 0.4375,-0.125 0.20313,0 0.35157,0.08594 0.15625,0.07813 0.25,0.21875 0.10156,0.140625 0.14843,0.328125 0.0547,0.1875 0.0547,0.40625 0,0.179687 -0.0391,0.484375 -0.0312,0.296875 -0.0312,0.625 0,0.1875 0.0156,0.375 0.0234,0.179687 0.0703,0.328125 0.0547,0.140625 0.15625,0.234375 0.10156,0.08594 0.26562,0.08594 0.1875,0 0.375,-0.101562 0.1875,-0.109375 0.36719,-0.28125 0.17969,-0.179688 0.34375,-0.390625 0.16406,-0.21875 0.29687,-0.429688 0.13282,-0.21875 0.23438,-0.414062 0.10156,-0.203125 0.16406,-0.335938 0.0781,-0.179687 0.27344,-0.179687 0.13281,0 0.21094,0.09375 0.0781,0.09375 0.0781,0.203125 0,0.0625 -0.0234,0.117187 -0.0312,0.0625 -0.125,0.257813 -0.0859,0.195312 -0.24218,0.453125 -0.14844,0.257812 -0.35157,0.539062 -0.20312,0.28125 -0.45312,0.523438 -0.24219,0.234375 -0.53125,0.390625 -0.28125,0.148437 -0.59375,0.148437 -0.35938,0 -0.57813,-0.148437 -0.21875,-0.15625 -0.34375,-0.390625 -0.11718,-0.234375 -0.16406,-0.523438 -0.0391,-0.289062 -0.0391,-0.5625 0,-0.140625 0.008,-0.296875 0.0156,-0.164062 0.0312,-0.320312 0.0156,-0.15625 0.0234,-0.289063 0.0156,-0.140625 0.0156,-0.234375 0,-0.242187 -0.0703,-0.328125 -0.0625,-0.08594 -0.14844,-0.08594 -0.125,0 -0.28906,0.148437 -0.15625,0.140625 -0.33594,0.375 -0.17187,0.234375 -0.35156,0.53125 -0.17187,0.289063 -0.33594,0.578125 -0.16406,0.289063 -0.29687,0.554688 -0.13281,0.257812 -0.21875,0.429687 -0.16406,0.328125 -0.33594,0.4375 -0.16406,0.117188 -0.29687,0.117188 -0.24219,0 -0.375,-0.1875 -0.125,-0.195313 -0.125,-0.46875 v -0.492188 q 0,-1.476562 0,-2.8125 0.008,-1.34375 0.0391,-2.492187 0.0391,-1.15625 0.11719,-2.085938 0.0859,-0.9375 0.25,-1.59375 0.16406,-0.664062 0.41406,-1.023437 0.25781,-0.359375 0.64062,-0.359375 0.32813,0 0.55469,0.179687 0.22656,0.179688 0.36719,0.492188 0.14062,0.304687 0.20312,0.71875 0.0625,0.40625 0.0625,0.859375 0,0.921875 -0.17187,1.8125 -0.16406,0.882812 -0.44531,1.726562 -0.28125,0.84375 -0.65625,1.648438 -0.375,0.796875 -0.78907,1.554687 0,0.140625 0,0.335938 0,0.195312 0,0.390625 0,0.195312 0,0.367187 0,0.171875 0,0.273438 z m 0,-2.882812 q 0.32812,-0.71875 0.59375,-1.398438 0.27343,-0.6875 0.46093,-1.367187 0.19532,-0.679688 0.30469,-1.375 0.10938,-0.703125 0.10938,-1.460938 0,-0.125 -0.0156,-0.398437 -0.008,-0.273438 -0.0703,-0.554688 -0.0547,-0.28125 -0.17969,-0.492187 -0.11719,-0.210938 -0.33594,-0.210938 -0.17187,0 -0.29687,0.234375 -0.125,0.226563 -0.21875,0.625 -0.0937,0.390625 -0.15625,0.914063 -0.0625,0.523437 -0.10156,1.109375 -0.0391,0.585937 -0.0625,1.203125 -0.0156,0.617187 -0.0234,1.203125 -0.008,0.578125 -0.008,1.085937 0,0.507813 0,0.882813 z" />
    <path
       id="path4724"
       style="font-style:normal;font-variant:normal;font-weight:normal;font-stretch:normal;font-size:16px;font-family:Sacramento;-inkscape-font-specification:Sacramento"
       d="m 129.27256,85.638031 q 0.11718,-0.234375 0.29687,-0.578125 0.1875,-0.351562 0.38281,-0.703125 0.20313,-0.351562 0.39063,-0.664062 0.19531,-0.3125 0.32812,-0.476563 0.22657,-0.273437 0.46875,-0.390625 0.24219,-0.117187 0.44532,-0.117187 0.20312,0 0.34375,0.08594 0.14843,0.08594 0.24218,0.234375 0.0937,0.140625 0.14063,0.335938 0.0469,0.1875 0.0469,0.40625 0,0.125 -0.0156,0.328125 -0.008,0.203125 -0.0234,0.4375 -0.008,0.234375 -0.0234,0.484375 -0.008,0.25 -0.0156,0.46875 0.11719,-0.234375 0.26562,-0.515625 0.14844,-0.289063 0.29688,-0.570313 0.15625,-0.28125 0.29687,-0.523437 0.14063,-0.25 0.25782,-0.40625 0.33593,-0.460938 0.625,-0.617188 0.29687,-0.15625 0.52343,-0.15625 0.26563,0 0.4375,0.101563 0.17188,0.09375 0.26563,0.25 0.10156,0.148437 0.14062,0.335937 0.0391,0.1875 0.0391,0.359375 0,0.265625 -0.0391,0.554688 -0.0391,0.289062 -0.0391,0.6875 0,0.164062 0.0156,0.328125 0.0156,0.164062 0.0625,0.289062 0.0547,0.125 0.16406,0.203125 0.10937,0.07813 0.29687,0.07813 0.20313,0 0.39844,-0.101562 0.19531,-0.109375 0.375,-0.28125 0.17969,-0.171875 0.33594,-0.390625 0.16406,-0.21875 0.29687,-0.4375 0.13282,-0.21875 0.23438,-0.414063 0.10156,-0.203125 0.16406,-0.34375 0.0391,-0.08594 0.10938,-0.132812 0.0703,-0.04687 0.15625,-0.04687 0.13281,0 0.21093,0.101562 0.0859,0.09375 0.0859,0.203125 0,0.05469 -0.0234,0.109375 -0.0312,0.0625 -0.125,0.265625 -0.0937,0.195313 -0.25,0.453125 -0.15625,0.25 -0.36718,0.53125 -0.20313,0.28125 -0.45313,0.523438 -0.25,0.234375 -0.53906,0.390625 -0.28906,0.148437 -0.60938,0.148437 -0.34375,0 -0.5625,-0.125 -0.21093,-0.117187 -0.34375,-0.320312 -0.125,-0.203125 -0.17187,-0.46875 -0.0469,-0.265625 -0.0469,-0.554688 0,-0.382812 0.0391,-0.703125 0.0391,-0.328125 0.0391,-0.507812 0,-0.195313 -0.0391,-0.296875 -0.0312,-0.101563 -0.0859,-0.140625 -0.0469,-0.04687 -0.0937,-0.04687 -0.0469,-0.0078 -0.0703,-0.0078 -0.1875,0 -0.39844,0.210938 -0.20313,0.203125 -0.42188,0.546875 -0.21875,0.34375 -0.45312,0.78125 -0.22656,0.4375 -0.46094,0.890625 -0.13281,0.25 -0.22656,0.414062 -0.0859,0.164063 -0.17188,0.257813 -0.0781,0.09375 -0.15625,0.132812 -0.0781,0.03906 -0.17187,0.03906 -0.20313,0 -0.3125,-0.140625 -0.10156,-0.140625 -0.10156,-0.367188 0,-0.117187 0.008,-0.3125 0.008,-0.195312 0.0156,-0.429687 0.008,-0.234375 0.0234,-0.484375 0.0156,-0.25 0.0234,-0.476563 0.008,-0.234375 0.0156,-0.414062 0.008,-0.179688 0.008,-0.273438 0,-0.203125 -0.0703,-0.289062 -0.0703,-0.09375 -0.16406,-0.09375 -0.0859,0 -0.19531,0.0625 -0.10156,0.0625 -0.24219,0.242187 -0.10937,0.140625 -0.28125,0.414063 -0.16406,0.265625 -0.35156,0.59375 -0.1875,0.328125 -0.375,0.671875 -0.17969,0.34375 -0.3125,0.617187 -0.16406,0.328125 -0.32813,0.445313 -0.16406,0.125 -0.32031,0.125 -0.22656,0 -0.33594,-0.132813 -0.10937,-0.140625 -0.10937,-0.367187 0,-0.02344 0.008,-0.28125 0.0156,-0.257813 0.0312,-0.625 0.0156,-0.375 0.0312,-0.796875 0.0234,-0.421875 0.0391,-0.789063 0.008,-0.195312 -0.0156,-0.359375 -0.0234,-0.164062 -0.0625,-0.195312 -0.0625,0.01563 -0.25,0.289062 -0.17969,0.273438 -0.46094,0.953125 -0.0391,0.08594 -0.11719,0.132813 -0.0781,0.04687 -0.16406,0.04687 -0.13281,0 -0.21094,-0.08594 -0.0781,-0.09375 -0.0781,-0.210937 0,-0.05469 0.0234,-0.117188 0.35156,-0.835937 0.67187,-1.226562 0.32031,-0.398438 0.625,-0.398438 0.17969,0 0.29688,0.08594 0.125,0.07813 0.19531,0.210937 0.0703,0.125 0.10156,0.289063 0.0312,0.164062 0.0312,0.320312 0,0.695313 -0.0391,1.273438 -0.0312,0.578125 -0.0703,1.164062 z" />
    <path
       id="path4726"
       style="font-style:normal;font-variant:normal;font-weight:normal;font-stretch:normal;font-size:16px;font-family:Sacramento;-inkscape-font-specification:Sacramento"
       d="m 141.28818,85.473969 q -0.19531,0 -0.34375,-0.03125 -0.11719,0.234375 -0.28125,0.4375 -0.16406,0.195312 -0.38281,0.34375 -0.21094,0.148437 -0.47656,0.234375 -0.26563,0.08594 -0.57813,0.08594 -0.36719,0 -0.67187,-0.132812 -0.30469,-0.125 -0.53125,-0.351563 -0.22657,-0.234375 -0.35157,-0.554687 -0.125,-0.328125 -0.125,-0.71875 0,-0.5 0.17969,-0.867188 0.17969,-0.375 0.41406,-0.617187 0.23438,-0.25 0.46875,-0.367188 0.23438,-0.125 0.35157,-0.125 0.13281,0 0.19531,0.07031 0.0703,0.07031 0.0703,0.1875 0,0.132812 -0.0859,0.203125 -0.0781,0.0625 -0.20312,0.125 -0.125,0.0625 -0.26563,0.179687 -0.14062,0.109375 -0.26562,0.28125 -0.11719,0.171875 -0.19531,0.40625 -0.0781,0.234375 -0.0781,0.523438 0,0.257812 0.0781,0.484375 0.0781,0.21875 0.22656,0.382812 0.14844,0.15625 0.35156,0.25 0.20313,0.08594 0.45313,0.08594 0.44531,0 0.73437,-0.203125 0.29688,-0.210938 0.45313,-0.53125 -0.46094,-0.242188 -0.75782,-0.6875 -0.29687,-0.445313 -0.29687,-1 0,-0.445313 0.21094,-0.726563 0.21875,-0.28125 0.57031,-0.28125 0.21094,0 0.39844,0.101563 0.1875,0.101562 0.32812,0.320312 0.14844,0.21875 0.23438,0.5625 0.0859,0.34375 0.0859,0.820313 0,0.25 -0.0625,0.523437 0.0469,0.0078 0.0937,0.0078 0.0469,0 0.10157,0 0.26562,0 0.47656,-0.0625 0.21094,-0.0625 0.38281,-0.1875 0.17188,-0.125 0.30469,-0.320313 0.14062,-0.195312 0.26562,-0.453125 0.0234,-0.04687 0.10157,-0.08594 0.0781,-0.04687 0.15625,-0.04687 0.10156,0 0.1875,0.08594 0.0937,0.07813 0.0937,0.210938 0,0.0625 -0.0312,0.140625 -0.0312,0.07031 -0.0625,0.132812 -0.13282,0.234375 -0.3125,0.453125 -0.17188,0.210938 -0.41407,0.375 -0.23437,0.15625 -0.53125,0.25 -0.29687,0.09375 -0.66406,0.08594 z m -1.33594,-1.96875 q 0,0.148437 0.0391,0.3125 0.0391,0.164062 0.11718,0.328125 0.0859,0.15625 0.20313,0.304687 0.125,0.140625 0.28906,0.242188 0.0234,-0.164063 0.0234,-0.320313 0,-0.210937 -0.0312,-0.429687 -0.0312,-0.21875 -0.0937,-0.398438 -0.0547,-0.1875 -0.14063,-0.296875 -0.0859,-0.117187 -0.20312,-0.117187 -0.0469,0 -0.125,0.07031 -0.0781,0.07031 -0.0781,0.304688 z" />
    <path
       id="path4728"
       style="font-style:normal;font-variant:normal;font-weight:normal;font-stretch:normal;font-size:16px;font-family:Sacramento;-inkscape-font-specification:Sacramento"
       d="m 144.55381,85.638031 q 0.11718,-0.234375 0.29687,-0.578125 0.1875,-0.351562 0.38281,-0.703125 0.20313,-0.351562 0.39063,-0.664062 0.19531,-0.3125 0.32812,-0.476563 0.22657,-0.273437 0.46875,-0.390625 0.24219,-0.117187 0.44532,-0.117187 0.20312,0 0.34375,0.08594 0.14843,0.08594 0.24218,0.234375 0.0937,0.140625 0.14063,0.335938 0.0469,0.1875 0.0469,0.40625 0,0.125 -0.0156,0.328125 -0.008,0.203125 -0.0234,0.4375 -0.008,0.234375 -0.0234,0.484375 -0.008,0.25 -0.0156,0.46875 0.11719,-0.234375 0.26562,-0.515625 0.14844,-0.289063 0.29688,-0.570313 0.15625,-0.28125 0.29687,-0.523437 0.14063,-0.25 0.25782,-0.40625 0.33593,-0.460938 0.625,-0.617188 0.29687,-0.15625 0.52343,-0.15625 0.26563,0 0.4375,0.101563 0.17188,0.09375 0.26563,0.25 0.10156,0.148437 0.14062,0.335937 0.0391,0.1875 0.0391,0.359375 0,0.265625 -0.0391,0.554688 -0.0391,0.289062 -0.0391,0.6875 0,0.164062 0.0156,0.328125 0.0156,0.164062 0.0625,0.289062 0.0547,0.125 0.16406,0.203125 0.10937,0.07813 0.29687,0.07813 0.20313,0 0.39844,-0.101562 0.19531,-0.109375 0.375,-0.28125 0.17969,-0.171875 0.33594,-0.390625 0.16406,-0.21875 0.29687,-0.4375 0.13282,-0.21875 0.23438,-0.414063 0.10156,-0.203125 0.16406,-0.34375 0.0391,-0.08594 0.10938,-0.132812 0.0703,-0.04687 0.15625,-0.04687 0.13281,0 0.21093,0.101562 0.0859,0.09375 0.0859,0.203125 0,0.05469 -0.0234,0.109375 -0.0312,0.0625 -0.125,0.265625 -0.0937,0.195313 -0.25,0.453125 -0.15625,0.25 -0.36718,0.53125 -0.20313,0.28125 -0.45313,0.523438 -0.25,0.234375 -0.53906,0.390625 -0.28906,0.148437 -0.60938,0.148437 -0.34375,0 -0.5625,-0.125 -0.21093,-0.117187 -0.34375,-0.320312 -0.125,-0.203125 -0.17187,-0.46875 -0.0469,-0.265625 -0.0469,-0.554688 0,-0.382812 0.0391,-0.703125 0.0391,-0.328125 0.0391,-0.507812 0,-0.195313 -0.0391,-0.296875 -0.0312,-0.101563 -0.0859,-0.140625 -0.0469,-0.04687 -0.0937,-0.04687 -0.0469,-0.0078 -0.0703,-0.0078 -0.1875,0 -0.39844,0.210938 -0.20313,0.203125 -0.42188,0.546875 -0.21875,0.34375 -0.45312,0.78125 -0.22656,0.4375 -0.46094,0.890625 -0.13281,0.25 -0.22656,0.414062 -0.0859,0.164063 -0.17188,0.257813 -0.0781,0.09375 -0.15625,0.132812 -0.0781,0.03906 -0.17187,0.03906 -0.20313,0 -0.3125,-0.140625 -0.10156,-0.140625 -0.10156,-0.367188 0,-0.117187 0.008,-0.3125 0.008,-0.195312 0.0156,-0.429687 0.008,-0.234375 0.0234,-0.484375 0.0156,-0.25 0.0234,-0.476563 0.008,-0.234375 0.0156,-0.414062 0.008,-0.179688 0.008,-0.273438 0,-0.203125 -0.0703,-0.289062 -0.0703,-0.09375 -0.16406,-0.09375 -0.0859,0 -0.19531,0.0625 -0.10156,0.0625 -0.24219,0.242187 -0.10937,0.140625 -0.28125,0.414063 -0.16406,0.265625 -0.35156,0.59375 -0.1875,0.328125 -0.375,0.671875 -0.17969,0.34375 -0.3125,0.617187 -0.16406,0.328125 -0.32813,0.445313 -0.16406,0.125 -0.32031,0.125 -0.22656,0 -0.33594,-0.132813 -0.10937,-0.140625 -0.10937,-0.367187 0,-0.02344 0.008,-0.28125 0.0156,-0.257813 0.0312,-0.625 0.0156,-0.375 0.0312,-0.796875 0.0234,-0.421875 0.0391,-0.789063 0.008,-0.195312 -0.0156,-0.359375 -0.0234,-0.164062 -0.0625,-0.195312 -0.0625,0.01563 -0.25,0.289062 -0.17969,0.273438 -0.46094,0.953125 -0.0391,0.08594 -0.11719,0.132813 -0.0781,0.04687 -0.16406,0.04687 -0.13281,0 -0.21094,-0.08594 -0.0781,-0.09375 -0.0781,-0.210937 0,-0.05469 0.0234,-0.117188 0.35156,-0.835937 0.67187,-1.226562 0.32031,-0.398438 0.625,-0.398438 0.17969,0 0.29688,0.08594 0.125,0.07813 0.19531,0.210937 0.0703,0.125 0.10156,0.289063 0.0312,0.164062 0.0312,0.320312 0,0.695313 -0.0391,1.273438 -0.0312,0.578125 -0.0703,1.164062 z" />
    <path
       id="path4730"
       style="font-style:normal;font-variant:normal;font-weight:normal;font-stretch:normal;font-size:16px;font-family:Sacramento;-inkscape-font-specification:Sacramento"
       d="m 159.32724,87.098969 q 1.46875,-1.914063 2.03907,-3.179688 0.0391,-0.08594 0.10156,-0.125 0.0703,-0.04687 0.15625,-0.04687 0.13281,0 0.21875,0.09375 0.0859,0.08594 0.0859,0.203125 0,0.05469 -0.0234,0.109375 -0.34375,0.78125 -0.97656,1.742188 -0.63282,0.960937 -1.60157,2.171875 0,0.492187 0.008,0.984375 0.008,0.492187 0.008,1.078125 0,0.585937 -0.0312,1.15625 -0.0234,0.578125 -0.0937,1.09375 -0.0703,0.523437 -0.19531,0.960937 -0.11719,0.445313 -0.3125,0.765625 -0.1875,0.328125 -0.46094,0.507813 -0.26563,0.1875 -0.63281,0.1875 -0.52344,0 -0.80469,-0.398438 -0.28125,-0.398437 -0.28125,-1.132812 0,-0.390625 0.0703,-0.851563 0.0781,-0.453125 0.21875,-0.9375 0.14063,-0.484375 0.33594,-0.984375 0.20312,-0.492187 0.44531,-0.960937 0.24219,-0.46875 0.52344,-0.898438 0.28906,-0.429687 0.60937,-0.78125 0.008,-0.546875 0.008,-1.085937 0.008,-0.539063 0.0234,-0.992188 -0.23437,0.296875 -0.5625,0.46875 -0.32031,0.171875 -0.64062,0.171875 -0.27344,0 -0.5,-0.101562 -0.21875,-0.109375 -0.375,-0.296875 -0.15625,-0.195313 -0.24219,-0.453125 -0.0859,-0.257813 -0.0859,-0.5625 0,-0.609375 0.20313,-1.070313 0.21094,-0.46875 0.53125,-0.78125 0.32031,-0.3125 0.70312,-0.46875 0.39063,-0.15625 0.75,-0.15625 0.24219,0 0.44532,0.0625 0.20312,0.0625 0.34375,0.140625 0.14843,0.07813 0.22656,0.148438 0.0781,0.07031 0.0859,0.07813 0.0859,0.09375 0.0859,0.210937 0,0.117188 -0.0859,0.210938 -0.0859,0.08594 -0.20313,0.08594 -0.10937,0 -0.21094,-0.08594 -0.0312,-0.02344 -0.0859,-0.0625 -0.0469,-0.04687 -0.13282,-0.09375 -0.0781,-0.04687 -0.19531,-0.07813 -0.10937,-0.03125 -0.26562,-0.03125 -0.23438,0 -0.51563,0.109375 -0.28125,0.101562 -0.52344,0.328125 -0.24218,0.226562 -0.40625,0.585937 -0.16406,0.351563 -0.16406,0.851563 0,0.375 0.16406,0.609375 0.16407,0.226562 0.50782,0.226562 0.16406,0 0.34375,-0.09375 0.1875,-0.09375 0.35937,-0.289062 0.17188,-0.195313 0.29688,-0.492188 0.13281,-0.296875 0.1875,-0.703125 0.0156,-0.109375 0.10156,-0.179687 0.0859,-0.07813 0.20312,-0.07813 0.13282,0 0.20313,0.09375 0.0781,0.09375 0.0781,0.210937 0,0.0078 -0.008,0.242188 -0.008,0.226562 -0.0156,0.609375 -0.008,0.382812 -0.0234,0.890625 -0.008,0.5 -0.0156,1.0625 z m -0.59375,1.710937 q -0.36718,0.507813 -0.66406,1.101563 -0.29687,0.601562 -0.50781,1.210937 -0.21094,0.609375 -0.32813,1.179688 -0.10937,0.578125 -0.10937,1.03125 0,0.289062 0.0469,0.460937 0.0547,0.171875 0.125,0.265625 0.0781,0.09375 0.16407,0.125 0.0937,0.03125 0.17187,0.03125 0.24219,0 0.42188,-0.195312 0.17968,-0.195313 0.30468,-0.523438 0.125,-0.320312 0.20313,-0.742187 0.0781,-0.421875 0.11719,-0.875 0.0391,-0.445313 0.0547,-0.890625 0.0156,-0.445313 0.0156,-0.820313 0,-0.335937 0,-0.671875 0,-0.335937 -0.0156,-0.6875 z" />
    <path
       id="path4732"
       style="font-style:normal;font-variant:normal;font-weight:normal;font-stretch:normal;font-size:16px;font-family:Sacramento;-inkscape-font-specification:Sacramento"
       d="m 164.97568,85.473969 q -0.19531,0 -0.34375,-0.03125 -0.11719,0.234375 -0.28125,0.4375 -0.16406,0.195312 -0.38281,0.34375 -0.21094,0.148437 -0.47656,0.234375 -0.26563,0.08594 -0.57813,0.08594 -0.36719,0 -0.67187,-0.132812 -0.30469,-0.125 -0.53125,-0.351563 -0.22657,-0.234375 -0.35157,-0.554687 -0.125,-0.328125 -0.125,-0.71875 0,-0.5 0.17969,-0.867188 0.17969,-0.375 0.41406,-0.617187 0.23438,-0.25 0.46875,-0.367188 0.23438,-0.125 0.35157,-0.125 0.13281,0 0.19531,0.07031 0.0703,0.07031 0.0703,0.1875 0,0.132812 -0.0859,0.203125 -0.0781,0.0625 -0.20312,0.125 -0.125,0.0625 -0.26563,0.179687 -0.14062,0.109375 -0.26562,0.28125 -0.11719,0.171875 -0.19531,0.40625 -0.0781,0.234375 -0.0781,0.523438 0,0.257812 0.0781,0.484375 0.0781,0.21875 0.22656,0.382812 0.14844,0.15625 0.35156,0.25 0.20313,0.08594 0.45313,0.08594 0.44531,0 0.73437,-0.203125 0.29688,-0.210938 0.45313,-0.53125 -0.46094,-0.242188 -0.75782,-0.6875 -0.29687,-0.445313 -0.29687,-1 0,-0.445313 0.21094,-0.726563 0.21875,-0.28125 0.57031,-0.28125 0.21094,0 0.39844,0.101563 0.1875,0.101562 0.32812,0.320312 0.14844,0.21875 0.23438,0.5625 0.0859,0.34375 0.0859,0.820313 0,0.25 -0.0625,0.523437 0.0469,0.0078 0.0937,0.0078 0.0469,0 0.10157,0 0.26562,0 0.47656,-0.0625 0.21094,-0.0625 0.38281,-0.1875 0.17188,-0.125 0.30469,-0.320313 0.14062,-0.195312 0.26562,-0.453125 0.0234,-0.04687 0.10157,-0.08594 0.0781,-0.04687 0.15625,-0.04687 0.10156,0 0.1875,0.08594 0.0937,0.07813 0.0937,0.210938 0,0.0625 -0.0312,0.140625 -0.0312,0.07031 -0.0625,0.132812 -0.13282,0.234375 -0.3125,0.453125 -0.17188,0.210938 -0.41407,0.375 -0.23437,0.15625 -0.53125,0.25 -0.29687,0.09375 -0.66406,0.08594 z m -1.33594,-1.96875 q 0,0.148437 0.0391,0.3125 0.0391,0.164062 0.11718,0.328125 0.0859,0.15625 0.20313,0.304687 0.125,0.140625 0.28906,0.242188 0.0234,-0.164063 0.0234,-0.320313 0,-0.210937 -0.0312,-0.429687 -0.0312,-0.21875 -0.0937,-0.398438 -0.0547,-0.1875 -0.14063,-0.296875 -0.0859,-0.117187 -0.20312,-0.117187 -0.0469,0 -0.125,0.07031 -0.0781,0.07031 -0.0781,0.304688 z" />
    <path
       id="path4734"
       style="font-style:normal;font-variant:normal;font-weight:normal;font-stretch:normal;font-size:16px;font-family:Sacramento;-inkscape-font-specification:Sacramento"
       d="m 169.26474,87.098969 q 1.46875,-1.914063 2.03907,-3.179688 0.0391,-0.08594 0.10156,-0.125 0.0703,-0.04687 0.15625,-0.04687 0.13281,0 0.21875,0.09375 0.0859,0.08594 0.0859,0.203125 0,0.05469 -0.0234,0.109375 -0.34375,0.78125 -0.97656,1.742188 -0.63282,0.960937 -1.60157,2.171875 0,0.492187 0.008,0.984375 0.008,0.492187 0.008,1.078125 0,0.585937 -0.0312,1.15625 -0.0234,0.578125 -0.0937,1.09375 -0.0703,0.523437 -0.19531,0.960937 -0.11719,0.445313 -0.3125,0.765625 -0.1875,0.328125 -0.46094,0.507813 -0.26563,0.1875 -0.63281,0.1875 -0.52344,0 -0.80469,-0.398438 -0.28125,-0.398437 -0.28125,-1.132812 0,-0.390625 0.0703,-0.851563 0.0781,-0.453125 0.21875,-0.9375 0.14063,-0.484375 0.33594,-0.984375 0.20312,-0.492187 0.44531,-0.960937 0.24219,-0.46875 0.52344,-0.898438 0.28906,-0.429687 0.60937,-0.78125 0.008,-0.546875 0.008,-1.085937 0.008,-0.539063 0.0234,-0.992188 -0.23437,0.296875 -0.5625,0.46875 -0.32031,0.171875 -0.64062,0.171875 -0.27344,0 -0.5,-0.101562 -0.21875,-0.109375 -0.375,-0.296875 -0.15625,-0.195313 -0.24219,-0.453125 -0.0859,-0.257813 -0.0859,-0.5625 0,-0.609375 0.20313,-1.070313 0.21094,-0.46875 0.53125,-0.78125 0.32031,-0.3125 0.70312,-0.46875 0.39063,-0.15625 0.75,-0.15625 0.24219,0 0.44532,0.0625 0.20312,0.0625 0.34375,0.140625 0.14843,0.07813 0.22656,0.148438 0.0781,0.07031 0.0859,0.07813 0.0859,0.09375 0.0859,0.210937 0,0.117188 -0.0859,0.210938 -0.0859,0.08594 -0.20313,0.08594 -0.10937,0 -0.21094,-0.08594 -0.0312,-0.02344 -0.0859,-0.0625 -0.0469,-0.04687 -0.13282,-0.09375 -0.0781,-0.04687 -0.19531,-0.07813 -0.10937,-0.03125 -0.26562,-0.03125 -0.23438,0 -0.51563,0.109375 -0.28125,0.101562 -0.52344,0.328125 -0.24218,0.226562 -0.40625,0.585937 -0.16406,0.351563 -0.16406,0.851563 0,0.375 0.16406,0.609375 0.16407,0.226562 0.50782,0.226562 0.16406,0 0.34375,-0.09375 0.1875,-0.09375 0.35937,-0.289062 0.17188,-0.195313 0.29688,-0.492188 0.13281,-0.296875 0.1875,-0.703125 0.0156,-0.109375 0.10156,-0.179687 0.0859,-0.07813 0.20312,-0.07813 0.13282,0 0.20313,0.09375 0.0781,0.09375 0.0781,0.210937 0,0.0078 -0.008,0.242188 -0.008,0.226562 -0.0156,0.609375 -0.008,0.382812 -0.0234,0.890625 -0.008,0.5 -0.0156,1.0625 z m -0.59375,1.710937 q -0.36718,0.507813 -0.66406,1.101563 -0.29687,0.601562 -0.50781,1.210937 -0.21094,0.609375 -0.32813,1.179688 -0.10937,0.578125 -0.10937,1.03125 0,0.289062 0.0469,0.460937 0.0547,0.171875 0.125,0.265625 0.0781,0.09375 0.16407,0.125 0.0937,0.03125 0.17187,0.03125 0.24219,0 0.42188,-0.195312 0.17968,-0.195313 0.30468,-0.523438 0.125,-0.320312 0.20313,-0.742187 0.0781,-0.421875 0.11719,-0.875 0.0391,-0.445313 0.0547,-0.890625 0.0156,-0.445313 0.0156,-0.820313 0,-0.335937 0,-0.671875 0,-0.335937 -0.0156,-0.6875 z" />
    <path
       id="path4736"
       style="font-style:normal;font-variant:normal;font-weight:normal;font-stretch:normal;font-size:16px;font-family:Sacramento;-inkscape-font-specification:Sacramento"
       d="m 174.13974,87.098969 q 1.46875,-1.914063 2.03907,-3.179688 0.0391,-0.08594 0.10156,-0.125 0.0703,-0.04687 0.15625,-0.04687 0.13281,0 0.21875,0.09375 0.0859,0.08594 0.0859,0.203125 0,0.05469 -0.0234,0.109375 -0.34375,0.78125 -0.97656,1.742188 -0.63282,0.960937 -1.60157,2.171875 0,0.492187 0.008,0.984375 0.008,0.492187 0.008,1.078125 0,0.585937 -0.0312,1.15625 -0.0234,0.578125 -0.0937,1.09375 -0.0703,0.523437 -0.19531,0.960937 -0.11719,0.445313 -0.3125,0.765625 -0.1875,0.328125 -0.46094,0.507813 -0.26563,0.1875 -0.63281,0.1875 -0.52344,0 -0.80469,-0.398438 -0.28125,-0.398437 -0.28125,-1.132812 0,-0.390625 0.0703,-0.851563 0.0781,-0.453125 0.21875,-0.9375 0.14063,-0.484375 0.33594,-0.984375 0.20312,-0.492187 0.44531,-0.960937 0.24219,-0.46875 0.52344,-0.898438 0.28906,-0.429687 0.60937,-0.78125 0.008,-0.546875 0.008,-1.085937 0.008,-0.539063 0.0234,-0.992188 -0.23437,0.296875 -0.5625,0.46875 -0.32031,0.171875 -0.64062,0.171875 -0.27344,0 -0.5,-0.101562 -0.21875,-0.109375 -0.375,-0.296875 -0.15625,-0.195313 -0.24219,-0.453125 -0.0859,-0.257813 -0.0859,-0.5625 0,-0.609375 0.20313,-1.070313 0.21094,-0.46875 0.53125,-0.78125 0.32031,-0.3125 0.70312,-0.46875 0.39063,-0.15625 0.75,-0.15625 0.24219,0 0.44532,0.0625 0.20312,0.0625 0.34375,0.140625 0.14843,0.07813 0.22656,0.148438 0.0781,0.07031 0.0859,0.07813 0.0859,0.09375 0.0859,0.210937 0,0.117188 -0.0859,0.210938 -0.0859,0.08594 -0.20313,0.08594 -0.10937,0 -0.21094,-0.08594 -0.0312,-0.02344 -0.0859,-0.0625 -0.0469,-0.04687 -0.13282,-0.09375 -0.0781,-0.04687 -0.19531,-0.07813 -0.10937,-0.03125 -0.26562,-0.03125 -0.23438,0 -0.51563,0.109375 -0.28125,0.101562 -0.52344,0.328125 -0.24218,0.226562 -0.40625,0.585937 -0.16406,0.351563 -0.16406,0.851563 0,0.375 0.16406,0.609375 0.16407,0.226562 0.50782,0.226562 0.16406,0 0.34375,-0.09375 0.1875,-0.09375 0.35937,-0.289062 0.17188,-0.195313 0.29688,-0.492188 0.13281,-0.296875 0.1875,-0.703125 0.0156,-0.109375 0.10156,-0.179687 0.0859,-0.07813 0.20312,-0.07813 0.13282,0 0.20313,0.09375 0.0781,0.09375 0.0781,0.210937 0,0.0078 -0.008,0.242188 -0.008,0.226562 -0.0156,0.609375 -0.008,0.382812 -0.0234,0.890625 -0.008,0.5 -0.0156,1.0625 z m -0.59375,1.710937 q -0.36718,0.507813 -0.66406,1.101563 -0.29687,0.601562 -0.50781,1.210937 -0.21094,0.609375 -0.32813,1.179688 -0.10937,0.578125 -0.10937,1.03125 0,0.289062 0.0469,0.460937 0.0547,0.171875 0.125,0.265625 0.0781,0.09375 0.16407,0.125 0.0937,0.03125 0.17187,0.03125 0.24219,0 0.42188,-0.195312 0.17968,-0.195313 0.30468,-0.523438 0.125,-0.320312 0.20313,-0.742187 0.0781,-0.421875 0.11719,-0.875 0.0391,-0.445313 0.0547,-0.890625 0.0156,-0.445313 0.0156,-0.820313 0,-0.335937 0,-0.671875 0,-0.335937 -0.0156,-0.6875 z" />
    <path
       id="path4738"
       style="font-style:normal;font-variant:normal;font-weight:normal;font-stretch:normal;font-size:16px;font-family:Sacramento;-inkscape-font-specification:Sacramento"
       d="m 180.63193,84.169281 q -0.0859,0.179688 -0.21875,0.429688 -0.125,0.242187 -0.28906,0.507812 -0.16406,0.265625 -0.36719,0.53125 -0.20312,0.257813 -0.44531,0.46875 -0.23438,0.203125 -0.50781,0.328125 -0.26563,0.132813 -0.57032,0.132813 -0.46875,0 -0.80468,-0.289063 -0.33594,-0.289062 -0.57032,-0.757812 -0.23437,-0.46875 -0.38281,-1.0625 -0.14062,-0.601563 -0.21875,-1.21875 -0.0781,-0.625 -0.10937,-1.210938 -0.0234,-0.585937 -0.0234,-1.039062 0,-0.65625 0.0391,-1.359375 0.0469,-0.703125 0.14063,-1.375 0.0937,-0.671875 0.23437,-1.273438 0.14844,-0.601562 0.34375,-1.054687 0.20313,-0.453125 0.46094,-0.71875 0.25781,-0.265625 0.58594,-0.265625 0.25781,0 0.46093,0.125 0.21094,0.117187 0.35157,0.390625 0.14062,0.273437 0.21875,0.710937 0.0781,0.4375 0.0781,1.070313 0,0.78125 -0.16406,1.617187 -0.16406,0.828125 -0.44531,1.671875 -0.28125,0.84375 -0.66407,1.6875 -0.38281,0.835938 -0.82031,1.632813 0.19531,0.992187 0.52344,1.5625 0.32812,0.5625 0.78906,0.5625 0.3125,0 0.60156,-0.242188 0.28907,-0.25 0.53125,-0.585937 0.24219,-0.335938 0.42188,-0.679688 0.1875,-0.351562 0.28906,-0.5625 0.0391,-0.07813 0.10938,-0.117187 0.0703,-0.04687 0.15625,-0.04687 0.13281,0 0.21093,0.09375 0.0859,0.09375 0.0859,0.210937 0,0.04687 -0.0312,0.125 z m -3.91406,-3.140625 q 0,0.5 0.0234,0.960938 0.0234,0.460937 0.0625,0.882812 0.32812,-0.632812 0.625,-1.34375 0.29687,-0.71875 0.52343,-1.445312 0.22657,-0.734375 0.35938,-1.453125 0.14062,-0.726563 0.14062,-1.382813 0,-0.921875 -0.14843,-1.320312 -0.14844,-0.398438 -0.39844,-0.398438 -0.16406,0 -0.32031,0.226563 -0.14844,0.226562 -0.28125,0.617187 -0.13282,0.390625 -0.24219,0.921875 -0.10938,0.53125 -0.1875,1.140625 -0.0703,0.609375 -0.11719,1.273438 -0.0391,0.664062 -0.0391,1.320312 z" />
    <path
       id="path4740"
       style="font-style:normal;font-variant:normal;font-weight:normal;font-stretch:normal;font-size:16px;font-family:Sacramento;-inkscape-font-specification:Sacramento"
       d="m 181.03037,85.473969 q 0.16406,0.226562 0.42187,0.367187 0.25782,0.132813 0.63282,0.132813 0.38281,0 0.69531,-0.179688 0.3125,-0.1875 0.57031,-0.484375 0.25781,-0.296875 0.46094,-0.664062 0.20312,-0.367188 0.36719,-0.734375 0.0391,-0.08594 0.10937,-0.125 0.0703,-0.04687 0.15625,-0.04687 0.13281,0 0.21094,0.09375 0.0859,0.09375 0.0859,0.203125 0,0.03906 -0.008,0.07031 -0.008,0.02344 -0.0234,0.05469 -0.53907,1.1875 -1.17969,1.789062 -0.63281,0.601563 -1.4375,0.617188 -0.51563,0 -0.89063,-0.203125 -0.375,-0.195313 -0.61718,-0.507813 -0.24219,-0.320312 -0.35938,-0.71875 -0.11719,-0.398437 -0.11719,-0.796875 0,-0.398437 0.0937,-0.734375 0.10157,-0.335937 0.28125,-0.585937 0.1875,-0.25 0.4375,-0.390625 0.25782,-0.140625 0.5625,-0.140625 0.17969,0 0.35157,0.07813 0.17968,0.07031 0.32031,0.210937 0.14062,0.132813 0.22656,0.328125 0.0859,0.195313 0.0859,0.445313 0,0.320312 -0.10938,0.601562 -0.10937,0.28125 -0.30468,0.523438 -0.1875,0.242187 -0.45313,0.445312 -0.26562,0.203125 -0.57031,0.351563 z m -0.23438,-0.507813 q 0.24219,-0.101562 0.4375,-0.257812 0.20313,-0.15625 0.34375,-0.34375 0.14063,-0.1875 0.21875,-0.390625 0.0781,-0.210938 0.0781,-0.421875 0,-0.234375 -0.11719,-0.351563 -0.11719,-0.125 -0.27344,-0.125 -0.21093,0 -0.35937,0.117188 -0.14844,0.117187 -0.24219,0.304687 -0.0937,0.1875 -0.14062,0.421875 -0.0391,0.226563 -0.0391,0.453125 0,0.140625 0.0234,0.296875 0.0312,0.15625 0.0703,0.296875 z" />
    <path
       id="path4742"
       style="font-style:normal;font-variant:normal;font-weight:normal;font-stretch:normal;font-size:16px;font-family:Sacramento;-inkscape-font-specification:Sacramento"
       d="m 185.05381,83.442719 q -0.0469,0.125 -0.11719,0.28125 -0.0625,0.15625 -0.14844,0.328125 -0.0703,0.132812 -0.14844,0.210937 -0.0703,0.07031 -0.1875,0.07031 -0.13281,0 -0.21093,-0.07813 -0.0781,-0.08594 -0.0781,-0.195313 0,-0.03906 0.008,-0.0625 0.008,-0.03125 0.0391,-0.09375 0.20312,-0.390625 0.29687,-0.679687 0.10156,-0.296875 0.16406,-0.617188 -0.0547,-0.179687 -0.0781,-0.304687 -0.0234,-0.125 -0.0234,-0.257813 0,-0.257812 0.10938,-0.414062 0.10937,-0.164063 0.30468,-0.164063 0.17969,0 0.28125,0.15625 0.10938,0.15625 0.10938,0.382813 0,0.125 -0.0234,0.25 -0.0234,0.125 -0.0625,0.3125 0.17969,0.445312 0.35938,0.789062 0.17968,0.34375 0.32031,0.632813 0.14062,0.28125 0.22656,0.53125 0.0937,0.25 0.0937,0.5 0,0.328125 -0.13281,0.625 -0.13281,0.296875 -0.4375,0.5 0.0391,0.0078 0.0781,0.0078 0.0391,0 0.0781,0 0.44531,0 0.82031,-0.203125 0.375,-0.203125 0.67188,-0.523437 0.30468,-0.328125 0.53906,-0.71875 0.23437,-0.398438 0.40625,-0.789063 0.0781,-0.179687 0.21875,-0.179687 0.13281,0 0.20312,0.09375 0.0781,0.09375 0.0781,0.203125 0,0.0625 -0.0234,0.117187 -0.0859,0.210938 -0.22656,0.484375 -0.13281,0.265625 -0.32813,0.554688 -0.1875,0.28125 -0.4375,0.554687 -0.25,0.273438 -0.5625,0.492188 -0.30468,0.210937 -0.67187,0.335937 -0.36719,0.132813 -0.80469,0.132813 -0.52344,0 -0.97656,-0.1875 -0.44531,-0.179688 -0.72656,-0.601563 -0.0469,-0.07031 -0.0469,-0.148437 0,-0.117188 0.0859,-0.203125 0.0937,-0.09375 0.21094,-0.09375 0.125,0 0.21093,0.08594 0.008,0.01563 0.0547,0.05469 0.0469,0.03125 0.10938,0.07813 0.0703,0.03906 0.15625,0.07031 0.0937,0.03125 0.1875,0.03125 0.1875,0 0.3125,-0.07813 0.13281,-0.07813 0.21093,-0.1875 0.0781,-0.117187 0.10938,-0.242187 0.0391,-0.132813 0.0391,-0.226563 0,-0.195312 -0.0625,-0.390625 -0.0625,-0.195312 -0.16406,-0.390625 -0.0937,-0.195312 -0.21094,-0.398437 -0.10937,-0.210938 -0.20312,-0.4375 z" />
  </g>
</svg>
